<?xml version="1.0" encoding="UTF-8"?>
<!DOCTYPE svg PUBLIC "-//W3C//DTD SVG 1.1//EN" "http://www.w3.org/Graphics/SVG/1.1/DTD/svg11.dtd">
<!-- Creator: CorelDRAW 2021 (64-Bit) -->
<svg xmlns="http://www.w3.org/2000/svg" xml:space="preserve" width="148mm" height="210mm" version="1.1" style="shape-rendering:geometricPrecision; text-rendering:geometricPrecision; image-rendering:optimizeQuality; fill-rule:evenodd; clip-rule:evenodd"
viewBox="4800 7600 5600 2000"
 xmlns:xlink="http://www.w3.org/1999/xlink"
 xmlns:xodm="http://www.corel.com/coreldraw/odm/2003">
 <defs>
  <style type="text/css">
   <![CDATA[
    .fil0 {fill:#22498F}
    .fil35 {fill:#FE9C02}
    .fil13 {fill:#FEA600}
    .fil44 {fill:#FEA708}
    .fil50 {fill:#FEB727}
    .fil47 {fill:#FEC827}
    .fil39 {fill:#FEC902}
    .fil21 {fill:#FED102}
    .fil5 {fill:#FEF356}
    .fil57 {fill:#FF7202}
    .fil17 {fill:#FF7802}
    .fil15 {fill:#FF7D02}
    .fil22 {fill:#FF7E02}
    .fil14 {fill:#FF8102}
    .fil34 {fill:#FF8202}
    .fil16 {fill:#FF8402}
    .fil8 {fill:#FF8A00}
    .fil19 {fill:#FF8A02}
    .fil41 {fill:#FF8A28}
    .fil52 {fill:#FF8D28}
    .fil55 {fill:#FF9002}
    .fil26 {fill:#FF9202}
    .fil54 {fill:#FF9328}
    .fil42 {fill:#FF9602}
    .fil29 {fill:#FF9A02}
    .fil38 {fill:#FF9A27}
    .fil31 {fill:#FFA102}
    .fil30 {fill:#FFA202}
    .fil18 {fill:#FFA502}
    .fil27 {fill:#FFA802}
    .fil11 {fill:#FFAA00}
    .fil46 {fill:#FFAB02}
    .fil33 {fill:#FFAD02}
    .fil32 {fill:#FFAF02}
    .fil37 {fill:#FFB102}
    .fil24 {fill:#FFB502}
    .fil25 {fill:#FFBC02}
    .fil49 {fill:#FFBF02}
    .fil10 {fill:#FFC500}
    .fil20 {fill:#FFCB02}
    .fil23 {fill:#FFCE02}
    .fil36 {fill:#FFD302}
    .fil40 {fill:#FFD527}
    .fil43 {fill:#FFD917}
    .fil48 {fill:#FFDB28}
    .fil28 {fill:#FFDC02}
    .fil58 {fill:#FFE202}
    .fil56 {fill:#FFE327}
    .fil3 {fill:#FFE502}
    .fil51 {fill:#FFE925}
    .fil53 {fill:#FFEA1C}
    .fil4 {fill:#FFEE19}
    .fil45 {fill:#FFEE25}
    .fil6 {fill:#FFF03A}
    .fil9 {fill:#FFF672}
    .fil12 {fill:#FFF68C}
    .fil7 {fill:#FFF8AA}
    .fil1 {fill:#FFED00;fill-rule:nonzero}
    .fil2 {fill:#22498F;fill-rule:nonzero}
   ]]>
  </style>
    <clipPath id="id0">
     <rect x="8442.78" y="8225.65" width="183.26" height="183.26"/>
    </clipPath>
 </defs>
 <g id="Livello_x0020_1">
  <metadata id="CorelCorpID_0Corel-Layer"/>
  <path class="fil0" d="M5390.36 8482.2c795.55,-184.41 -73.89,-228.22 962.73,-447.04 739.8,-156.15 1621.65,142.99 2622.98,127.33 1425.42,-22.28 856.19,90.18 1215.75,197.79 10.58,172.2 -57.6,27.62 22.88,190.52 41.46,83.91 84.8,22.79 63.71,183.63 -56.31,128.22 -1329.29,97.96 -1612.73,94.48 -294.41,-3.6 -569.65,33.05 -1002.18,9.23 -453.81,-25.01 -907.63,-41.8 -1364,-62.81 -401.73,-18.51 -1000.01,54.99 -1341.55,4.27l355.56 -257.04c4.25,-3.57 12.79,-10.95 19.2,-16.41 -138.58,39.11 -435.67,199.09 -516.57,292.35 73.2,62.98 130.48,65.84 284.94,68.26 288.32,4.51 656.38,-48.77 1025.77,-38.44 470.84,13.16 900.36,61.35 1376.59,35.28 875.5,-47.91 2001.01,90.02 2802.94,-19.36 124.25,-379.7 -16.61,-47.3 -42.24,-537.44 -339.84,-33.63 108.33,-145.62 -516.26,-189.42 -842.9,-59.1 -1021.74,29.13 -2051.35,-121.85 -443.93,-65.1 -905.87,-129.88 -1343.23,-27.16 -903.24,212.12 -451.76,200.26 -714.11,372.71 -104.28,68.54 -153.63,49.45 -248.83,141.12z"/>
  <g id="_2486315915328">
   <path class="fil1" d="M6731.16 8597.4c0,-5.6 0.82,-11.53 2.39,-17.86 5.51,-21.82 11.85,-43.22 19.18,-64.21 7.32,-20.99 13.99,-41.9 19.92,-62.64 5.92,-20.75 10.86,-38.2 14.81,-52.44 3.96,-14.24 7.41,-26.42 10.54,-36.63 3.05,-10.2 5.85,-19.01 8.4,-26.42 2.55,-7.41 5.35,-14.73 8.48,-21.98 1.89,-4.28 4.03,-8.81 6.33,-13.5 2.39,-4.61 4.86,-8.89 7.66,-12.84 2.72,-3.95 5.51,-7.16 8.48,-9.71 3.04,-2.47 6.09,-3.71 9.3,-3.71 6.58,0 11.61,1.07 15.06,3.3 3.46,2.14 5.6,4.11 6.42,5.84l2.14 9.88c2.47,-0.08 5.6,-0.58 9.47,-1.32 3.87,-0.66 7.74,-1.48 11.69,-2.22 3.95,-0.82 7.57,-1.65 10.95,-2.47 3.37,-0.82 5.92,-1.48 7.73,-2.14 10.62,-2.88 20.42,-5.43 29.39,-7.49 9.06,-2.06 17.62,-3.79 25.68,-5.19 8.15,-1.31 15.89,-2.38 23.3,-3.04 7.41,-0.58 14.9,-0.91 22.39,-0.91 7.41,0 13.42,0.41 18.11,1.15 4.69,0.83 8.39,1.9 11.11,3.3 2.72,1.4 4.61,2.96 5.68,4.85 0.99,1.81 1.56,3.79 1.56,5.85 0,1.97 -0.57,4.03 -1.56,6.17 -1.07,2.14 -2.8,4.2 -5.19,6.17 -2.47,1.9 -5.59,3.63 -9.38,5.03 -3.87,1.48 -8.73,2.47 -14.49,2.88 -1.48,0.33 -4.77,0.98 -10.04,1.81 -5.19,0.9 -10.87,1.89 -16.96,2.96 -6.17,0.99 -11.93,1.98 -17.37,2.96 -5.51,0.99 -9.3,1.73 -11.36,2.23l0.25 0c-0.99,0.08 -3.29,0.74 -6.91,1.73 -3.62,1.07 -7.99,2.3 -13.09,3.62 -5.19,1.4 -10.78,2.96 -16.79,4.77 -6.01,1.73 -11.94,3.46 -17.87,5.19 -5.84,1.64 -11.27,3.29 -16.21,4.77 -5.02,1.57 -9.06,2.8 -12.1,3.79 -9.8,3.79 -17.45,8.89 -23.05,15.31 -5.51,6.34 -9.88,13.42 -13.09,21.32 -0.66,1.4 -1.64,3.87 -2.88,7.32 -1.32,3.46 -2.72,7.41 -4.28,11.86 -1.48,4.36 -3.13,9.14 -4.94,14.07 -1.73,5.03 -3.46,9.72 -5.02,14.24 -1.65,4.53 -3.05,8.65 -4.28,12.27 -1.15,3.7 -2.06,6.5 -2.47,8.23 -0.49,1.65 -0.82,3.05 -0.99,4.36 -0.16,1.24 -0.24,2.23 -0.24,2.88 0,0.99 0.24,1.49 0.74,1.49 2.38,0 7.41,-1.16 15.06,-3.3 7.66,-2.14 16.55,-4.85 26.75,-8.06 10.21,-3.21 21.16,-6.67 32.76,-10.37 11.69,-3.71 22.89,-7.17 33.59,-10.38 10.7,-3.21 20.17,-5.92 28.56,-8.06 8.32,-2.23 14.41,-3.3 18.11,-3.3 5.6,0 9.39,0.91 11.28,2.8 1.97,1.81 2.88,3.87 2.88,6.18 0,5.76 -1.98,10.78 -6.09,15.14 -4.12,4.36 -9.22,8.15 -15.31,11.36 -1.98,0.99 -5.52,2.39 -10.79,4.2 -5.18,1.89 -10.86,3.79 -16.87,5.68 -6.01,1.89 -11.77,3.79 -17.2,5.51 -5.52,1.82 -9.39,3.05 -11.86,3.87 -15.72,6.09 -28.56,11.12 -38.44,15.07 -9.88,3.95 -17.86,7.16 -24.03,9.63 -6.1,2.55 -10.79,4.44 -14.08,5.68 -3.29,1.31 -6.34,2.38 -9.14,3.29 -2.8,0.91 -5.92,1.73 -9.3,2.55 -3.37,0.74 -8.07,1.9 -13.99,3.38 -1.48,3.37 -3.13,8.48 -5.11,15.31 -1.89,6.83 -3.7,13.91 -5.51,21.23 -1.73,7.25 -3.21,14.08 -4.45,20.34 -1.23,6.25 -1.81,10.62 -1.81,13 0,2.88 0.41,5.02 1.24,6.42 0.74,1.4 1.73,2.31 2.88,2.8 1.07,0.41 2.22,0.66 3.37,0.66 1.07,0 1.98,0 2.64,0 7.74,0 17.04,-1.07 27.82,-3.37 10.87,-2.23 21.65,-5.19 32.19,-8.89 10.2,-3.54 19.01,-7.41 26.58,-11.61 7.58,-4.12 14.66,-8.07 21.32,-11.69 6.67,-3.62 13.17,-6.67 19.51,-9.14 6.34,-2.47 13.34,-3.78 20.91,-3.95 1.56,0 3.46,0.17 5.68,0.41 2.14,0.33 4.2,0.99 6.09,1.81 1.98,0.91 3.54,2.06 4.69,3.54 1.24,1.4 1.65,3.3 1.4,5.52 -0.66,4.69 -3.04,9.3 -7,13.75 -4.03,4.52 -9.13,8.89 -15.22,13.08 -6.09,4.12 -12.93,8.15 -20.5,12.02 -7.57,3.87 -15.31,7.49 -23.13,10.95 -7.9,3.46 -15.64,6.58 -23.21,9.47 -7.49,2.79 -14.24,5.18 -20.25,7.32 -14.74,5.11 -29.14,8.89 -43.14,11.36 -13.99,2.39 -26.5,3.62 -37.61,3.62 -12.19,0 -21.57,-2.3 -28.07,-6.91 -6.51,-4.61 -9.8,-12.18 -9.8,-22.8z"/>
   <path id="_1" class="fil1" d="M7141.59 8604.89c0,-4.69 0.57,-10.21 1.72,-16.79 1.07,-6.51 1.65,-14.57 1.65,-24.2 -5.27,3.86 -11.19,8.47 -17.62,13.74 -6.42,5.27 -13.08,10.37 -20,15.23 -6.91,4.77 -13.74,8.81 -20.58,12.1 -6.83,3.29 -13.25,4.94 -19.18,4.94 -4.85,0 -9.46,-0.66 -13.74,-2.14 -4.37,-1.4 -8.07,-3.38 -11.11,-5.76 -8.57,-6.75 -14.66,-13.5 -18.44,-20.25 -3.79,-6.75 -5.68,-14.65 -5.68,-23.63 0,-4.03 0.33,-8.23 1.07,-12.59 0.74,-4.28 1.81,-9.3 3.29,-14.9 6.09,-25.44 16.54,-48.98 31.44,-70.54 14.9,-21.65 33.34,-40.09 55.32,-55.4 8.56,-5.93 17.04,-9.71 25.6,-11.44 8.48,-1.65 16.96,-2.56 25.27,-2.56 3.7,0 7.9,0.25 12.43,0.75 4.61,0.49 8.73,0.98 12.43,1.48 3.7,-0.83 6.75,-1.4 9.05,-1.73 2.31,-0.33 4.78,-0.5 7.33,-0.5 4.86,0 8.89,0.66 12.1,1.98 3.21,1.23 5.76,2.96 7.74,5.19 1.89,2.14 3.29,4.69 4.2,7.49 0.9,2.8 1.31,5.76 1.31,8.8 0,4.12 -0.66,8.15 -1.89,11.94 -1.32,3.79 -2.63,7.57 -3.87,11.44l-31.85 127.1c-0.66,6.91 -1.24,13.25 -1.65,19.01 -0.5,5.76 -1.48,11.2 -2.96,16.13 -0.42,1.49 -1.07,3.3 -1.82,5.44 -0.65,2.22 -1.81,4.28 -3.45,6.34 -1.65,1.97 -3.62,3.7 -6.01,5.18 -2.47,1.4 -5.6,2.14 -9.47,2.14 -4.94,0 -8.89,-0.33 -11.93,-0.99 -2.97,-0.65 -5.27,-1.56 -6.84,-2.71 -1.64,-1.24 -2.63,-2.72 -3.12,-4.37 -0.5,-1.72 -0.74,-3.7 -0.74,-5.92zm-80.1 -72.85c-0.57,2.3 -1.31,5.51 -1.97,9.63 -0.74,4.2 -1.16,8.4 -1.16,12.59 0,4.28 0.66,8.24 1.98,11.69 1.24,3.46 4.12,5.19 8.4,5.19 6.75,0 13.08,-1.48 18.93,-4.45 5.93,-2.96 11.36,-6.58 16.54,-10.78 6.92,-5.6 13.92,-11.93 21.08,-18.93 7.16,-7 13.91,-14.32 20.25,-22.06 6.42,-7.74 12.01,-15.64 16.95,-23.71 4.86,-8.15 8.48,-16.21 10.7,-24.28 1.24,-4.61 2.39,-10.04 3.21,-16.14 0.91,-6.09 1.4,-11.6 1.4,-16.38 0,-2.14 -0.49,-4.19 -1.48,-6.17 -0.99,-1.98 -2.8,-3.05 -5.51,-3.05 -7.91,0 -15.81,1.57 -23.79,4.61 -7.99,3.05 -15.64,7.17 -23.05,12.27 -7.41,5.19 -14.41,11.28 -21.07,18.27 -6.67,7 -12.76,14.41 -18.19,22.39 -5.52,7.99 -10.21,16.14 -14.16,24.62 -3.95,8.39 -6.92,16.7 -9.06,24.69z"/>
   <path id="_2" class="fil1" d="M7269.66 8572.54c1.24,0 2.39,0.16 3.46,0.49 1.07,0.33 2.22,0.74 3.46,1.07 1.31,0.41 2.8,0.83 4.36,1.15 1.65,0.33 3.7,0.5 6.26,0.5 7.57,0 15.97,-0.82 25.27,-2.47 9.22,-1.56 17.94,-3.7 26.09,-6.26 8.23,-2.55 15.23,-5.51 21.16,-8.8 5.84,-3.3 9.22,-6.67 9.96,-10.21 0.49,-1.98 0.74,-3.62 0.74,-5.1 0,-2.72 -1.32,-5.36 -3.95,-7.82 -2.64,-2.47 -6.01,-4.86 -10.05,-7.17 -4.03,-2.22 -8.31,-4.28 -13,-6.25 -4.69,-1.9 -8.97,-3.71 -13.01,-5.27l-8.23 -3.38c-4.2,-1.64 -8.23,-3.62 -12.26,-5.92 -4.04,-2.31 -7.74,-5.02 -11.2,-8.07 -3.46,-3.04 -6.58,-6.67 -9.22,-10.7 -2.63,-4.12 -4.61,-8.81 -5.84,-14.16 -0.66,-2.22 -1.24,-4.53 -1.65,-6.75 -0.33,-2.22 -0.58,-4.69 -0.58,-7.24 0,-4.2 1.4,-8.97 4.2,-14.32 2.88,-5.44 6.59,-10.71 11.36,-16.06 4.78,-5.26 10.13,-10.37 16.14,-15.22 6.09,-4.78 12.34,-8.81 18.93,-12.02 4.85,-3.38 9.55,-6.42 13.99,-9.14 4.53,-2.8 9.06,-5.1 13.67,-7 4.52,-1.97 9.22,-3.45 13.99,-4.61 4.69,-1.15 9.71,-1.64 15.06,-1.64 4.78,0 10.05,0.16 15.64,0.66 5.68,0.49 10.79,1.64 15.48,3.37 4.61,1.81 8.56,4.45 11.69,7.9 3.12,3.46 4.69,8.07 4.69,13.83 0,1.81 -0.25,4.12 -0.74,7 -0.5,2.88 -1.24,5.76 -2.39,8.64 -1.15,2.97 -2.47,5.44 -4.11,7.49 -1.57,2.14 -3.54,3.13 -5.77,3.13 -3.7,0 -6.75,-0.66 -9.22,-2.14 -2.38,-1.48 -4.52,-3.04 -6.5,-4.69 -1.89,-1.73 -3.95,-3.29 -6.01,-4.69 -2.06,-1.48 -4.69,-2.23 -7.74,-2.23 -3.7,0 -7.98,0.75 -12.84,2.06 -4.94,1.4 -9.96,3.21 -15.06,5.6 -5.19,2.3 -10.21,5.02 -15.15,8.07 -4.85,3.04 -9.3,6.17 -13.25,9.38 -3.95,3.21 -7.08,6.42 -9.47,9.55 -2.46,3.13 -3.62,6.01 -3.62,8.56 0,2.72 0.83,4.94 2.64,6.75 1.73,1.73 4.03,3.29 6.75,4.53 3.54,1.97 7.57,3.87 12.18,5.84 4.53,1.89 9.22,3.87 13.83,5.76 4.69,1.9 9.22,3.87 13.66,5.77 4.45,1.97 8.23,3.7 11.44,5.35 4.37,2.22 8.24,4.44 11.69,6.58 3.46,2.22 6.42,4.61 8.81,7.16 2.39,2.55 4.28,5.44 5.52,8.65 1.31,3.21 1.97,6.99 1.97,11.36 0,2.05 -0.16,4.19 -0.49,6.25 -0.33,2.14 -0.83,4.53 -1.48,7.25 -0.42,2.38 -1.32,5.26 -2.47,8.47 -1.24,3.21 -2.56,6.34 -3.87,9.47 -1.4,3.13 -2.8,6.01 -4.28,8.48 -1.4,2.47 -2.64,4.11 -3.54,4.94 -6.34,5.76 -13.75,11.19 -22.23,16.3 -8.56,5.02 -17.37,9.46 -26.67,13.25 -9.22,3.78 -18.44,6.75 -27.74,9.05 -9.22,2.23 -17.7,3.38 -25.43,3.38 -3.87,0 -8.07,-0.83 -12.76,-2.31 -4.69,-1.56 -8.97,-3.54 -12.93,-6.01 -3.95,-2.55 -7.24,-5.35 -9.87,-8.56 -2.64,-3.21 -3.95,-6.5 -3.95,-9.71 0,-1.56 0.49,-3.37 1.4,-5.35 0.98,-2.06 2.22,-3.87 3.62,-5.6 1.48,-1.64 3.04,-3.13 4.69,-4.36 1.73,-1.15 3.29,-1.81 4.77,-1.81z"/>
   <path id="_3" class="fil1" d="M7466.64 8726.63c-2.47,0 -4.61,-0.57 -6.5,-1.89 -1.98,-1.32 -3.63,-2.96 -4.94,-5.02 -1.4,-2.14 -2.47,-4.45 -3.29,-6.92 -0.83,-2.47 -1.24,-4.94 -1.24,-7.32 0,-3.05 0.41,-5.76 1.24,-7.99 0.82,-2.22 1.81,-4.2 3.04,-5.92 1.15,-1.65 2.47,-2.97 3.79,-3.96 1.4,-0.98 2.63,-1.72 3.78,-2.14 3.87,-0.98 8.32,-2.05 13.5,-3.21 5.11,-1.07 10.7,-2.71 16.8,-4.93 6,-2.14 12.43,-4.94 19.26,-8.4 6.83,-3.46 13.83,-7.99 21.07,-13.66 7.24,-5.6 14.82,-12.19 22.8,-19.6 7.99,-7.49 15.64,-16.29 23.05,-26.34 7.41,-10.04 14.32,-21.56 20.74,-34.49 6.42,-12.92 11.69,-27.74 15.89,-44.45 -3.05,3.38 -6.5,7.16 -10.45,11.45 -3.96,4.28 -8.15,8.56 -12.68,13 -4.53,4.45 -9.14,8.73 -13.99,12.76 -4.86,4.12 -9.64,7.82 -14.49,11.11 -4.78,3.29 -9.47,5.93 -14.08,7.82 -4.61,1.98 -8.89,2.88 -12.92,2.88 -10.78,0 -19.92,-2.38 -27.49,-7.32 -7.58,-4.86 -14.57,-13.01 -20.99,-24.2 -1.73,-3.21 -3.13,-7.41 -4.12,-12.6 -0.91,-5.1 -1.4,-10.37 -1.4,-15.64 0,-8.72 0.41,-17.12 1.23,-25.35 0.75,-8.15 1.98,-16.71 3.54,-25.52 1.65,-8.89 3.54,-18.11 5.68,-27.9 2.23,-9.72 4.61,-20.42 7.41,-32.19 0.17,-3.04 0.41,-5.92 0.66,-8.64 0.33,-2.31 0.58,-4.45 0.66,-6.5 0.08,-2.14 0.16,-3.38 0.33,-3.87 0.33,-2.72 1.23,-5.35 2.8,-7.74 1.48,-2.39 3.37,-4.53 5.51,-6.26 2.23,-1.81 4.53,-3.12 7,-4.11 2.55,-0.99 4.94,-1.4 7.41,-1.4 3.37,0 6.75,0.25 10.12,0.82 3.38,0.58 6.01,1.81 7.9,3.71 2.72,2.88 4.78,6.66 6.18,11.36 1.4,4.69 2.06,8.8 2.06,12.51 0,1.48 -0.66,4.36 -2.06,8.72 -1.4,4.28 -3.38,8.81 -5.93,13.5 -3.87,14.49 -7,26.67 -9.38,36.8 -2.39,10.04 -4.28,18.35 -5.68,25.02 -1.32,6.67 -2.31,12.02 -2.88,15.97 -0.58,3.87 -0.83,6.91 -0.83,8.97 0,8.73 1.4,15.64 4.28,20.75 2.97,5.18 6.51,7.73 10.62,7.73 2.47,0 5.19,-0.49 8.32,-1.4 3.21,-0.98 6.5,-2.63 10.04,-4.85 13.5,-8.4 25.11,-17.45 34.82,-27.41 9.79,-9.88 18.11,-20.75 25.1,-32.77 7,-11.93 13.01,-25.1 18.11,-39.42 5.02,-14.33 9.63,-30.05 13.83,-47.25 0.33,-1.16 1.07,-2.31 2.31,-3.38 1.23,-1.15 2.63,-2.14 4.36,-2.88 1.65,-0.82 3.46,-1.48 5.43,-2.06 1.9,-0.57 3.79,-0.9 5.52,-0.9 8.56,0 15.06,2.3 19.67,6.91 4.53,4.61 6.83,10.7 6.83,18.44 0,2.88 -0.66,7.57 -2.14,13.99 -1.48,6.43 -3.12,13.26 -5.1,20.42 -1.89,7.16 -3.87,13.99 -5.84,20.5 -2.06,6.5 -3.63,11.27 -4.7,14.32l-11.6 33.5c-5.27,15.15 -10.13,29.06 -14.33,41.73 -4.28,12.68 -8.8,24.53 -13.66,35.56 -4.86,11.03 -10.21,21.41 -16.3,31.2 -6.01,9.88 -13.25,19.43 -21.81,28.73 -8.48,9.3 -18.61,18.68 -30.38,28.07 -11.68,9.46 -25.68,19.18 -41.98,29.3 -9.96,6.01 -19.67,10.87 -29.3,14.65 -9.55,3.79 -19.59,5.6 -30.21,5.6z"/>
   <path id="_4" class="fil2" d="M7707.74 8704.49c3.21,-13.01 6.09,-24.94 8.56,-35.81 2.55,-10.86 4.77,-21.07 6.91,-30.62 2.06,-9.55 4.04,-18.85 5.93,-27.74 1.81,-8.89 3.7,-17.94 5.52,-27 1.81,-9.14 3.78,-18.52 5.76,-28.31 2.06,-9.88 4.28,-20.5 6.67,-32.11l11.6 -55.97c1.89,-9.47 3.21,-17.62 3.95,-24.45 0.74,-6.83 1.07,-13.17 1.07,-18.93 0,-6.09 0.17,-11.53 0.5,-16.3 0.33,-4.69 1.23,-8.73 2.63,-12.02 1.48,-3.29 3.62,-5.84 6.42,-7.49 2.8,-1.73 6.67,-2.55 11.69,-2.55 7.24,0 12.84,0.99 16.87,3.05 4.04,1.97 7,4.6 8.89,7.82 1.98,3.21 3.13,6.91 3.54,11.11 0.42,4.11 0.58,8.48 0.58,13 5.52,-3.87 11.85,-7.32 19.18,-10.37 7.33,-3.04 14.9,-5.6 22.8,-7.57 7.9,-2.06 15.81,-3.62 23.87,-4.78 8.07,-1.07 15.56,-1.64 22.64,-1.64 11.61,0 21.73,2.06 30.37,6.17 8.73,4.04 15.97,9.55 21.73,16.38 5.77,6.83 10.13,14.74 13.01,23.63 2.88,8.89 4.36,18.11 4.36,27.57 0,11.11 -1.73,21.57 -5.27,31.36 -3.53,9.8 -8.39,19.02 -14.48,27.5 -6.09,8.56 -13.26,16.46 -21.32,23.79 -8.15,7.32 -16.88,13.99 -26.34,20.16 -9.39,6.1 -19.1,11.69 -29.14,16.71 -10.05,5.11 -20.01,9.63 -29.8,13.67 -6.59,2.71 -12.84,4.77 -18.69,6.09 -5.84,1.4 -11.11,2.06 -15.8,2.06 -6.59,0 -13.01,-0.74 -19.18,-2.14 -6.17,-1.48 -12.18,-3.87 -17.94,-7.25 -3.22,10.95 -5.93,21.41 -8.07,31.37 -2.22,9.96 -3.95,18.76 -5.19,26.5 -0.82,4.86 -1.81,9.88 -2.88,15.23 -1.15,5.27 -2.3,10.45 -3.46,15.56 -1.07,5.02 -2.14,9.79 -3.21,14.32 -1.07,4.53 -1.89,8.31 -2.55,11.61 -0.49,1.89 -1.64,3.54 -3.46,4.77 -1.89,1.32 -4.11,2.39 -6.66,3.29 -2.55,0.83 -5.19,1.48 -7.82,1.9 -2.64,0.41 -5.02,0.57 -7.08,0.57 -11.94,0 -17.86,-4.61 -17.86,-13.91 0,-2.63 0.41,-5.35 1.15,-8.23zm74.82 -139.85c2.39,0.33 4.94,0.74 7.66,1.15 2.8,0.49 5.43,0.99 7.98,1.48 2.55,0.49 4.78,0.91 6.67,1.32 1.81,0.41 3.05,0.57 3.7,0.57 3.05,0 6.51,-0.33 10.21,-1.15 3.79,-0.82 7.57,-1.89 11.36,-3.13 3.79,-1.31 7.41,-2.71 10.95,-4.28 3.54,-1.48 6.75,-2.96 9.47,-4.44 7.81,-4.04 16.29,-8.89 25.18,-14.57 8.89,-5.68 17.21,-12.27 24.86,-19.68 7.58,-7.4 13.91,-15.64 18.93,-24.85 4.94,-9.14 7.41,-19.27 7.41,-30.38 0,-4.44 -0.49,-8.64 -1.64,-12.51 -1.16,-3.87 -2.8,-7.24 -5.11,-10.13 -2.22,-2.88 -5.18,-5.18 -8.8,-6.91 -3.54,-1.65 -7.91,-2.47 -12.85,-2.47 -5.51,0 -10.61,0.33 -15.47,1.07 -4.77,0.74 -9.55,1.89 -14.24,3.46 -4.61,1.64 -9.3,3.7 -13.99,6.17 -4.61,2.47 -9.47,5.52 -14.41,9.06 -4.53,3.7 -9.63,6.91 -15.23,9.79 -5.6,2.8 -11.69,4.61 -18.35,5.35l-24.29 95.08z"/>
   <path id="_5" class="fil2" d="M8012.39 8590.4c2.05,-11.19 4.44,-23.62 7.24,-37.12 2.72,-13.5 5.51,-27.17 8.4,-41 2.88,-13.82 5.76,-27.41 8.47,-40.74 2.72,-13.34 5.02,-25.6 7,-36.63 -0.16,-1.65 -0.25,-3.05 -0.25,-4.28 0,-1.15 0,-2.47 0,-3.95 0,-5.02 0.33,-9.96 0.99,-14.98 0.58,-4.94 1.48,-9.55 2.64,-13.75 1.72,-6.09 3.7,-10.21 5.92,-12.43 2.14,-2.14 5.6,-3.21 10.46,-3.21 4.69,0 8.39,0.9 11.19,2.8 2.8,1.81 5.02,4.28 6.67,7.32 1.56,3.05 2.63,6.59 3.13,10.46 0.49,3.95 0.74,8.06 0.74,12.18 0,2.3 -0.09,4.77 -0.25,7.49 -0.16,2.72 -0.25,4.94 -0.25,6.5 4.53,-4.61 9.3,-9.38 14.33,-14.32 5.1,-4.94 10.45,-9.3 16.13,-13.25 5.76,-3.95 11.77,-7.25 18.11,-9.8 6.34,-2.55 13,-3.87 19.92,-3.87 2.72,0 5.43,0.25 8.07,0.74 2.63,0.5 5.35,1.16 8.06,1.98 3.21,0.74 6.59,1.81 10.05,3.21 3.45,1.4 6.75,3.29 9.96,5.68 5.35,4.03 9.79,9.05 13.41,15.06 3.62,6.01 5.44,12.19 5.44,18.44 0,2.39 -0.5,5.02 -1.49,7.82 -0.9,2.88 -2.3,5.43 -3.95,7.74 -1.73,2.3 -3.7,4.28 -5.92,5.76 -2.23,1.57 -4.7,2.31 -7.49,2.31 -2.72,0 -6.01,-0.66 -9.96,-2.06 -3.96,-1.32 -7.25,-3.13 -9.8,-5.43 -1.15,-0.91 -2.3,-2.31 -3.46,-4.04 -1.23,-1.81 -2.38,-3.54 -3.37,-5.35 -1.07,-1.73 -2.06,-3.37 -2.97,-4.94 -0.82,-1.48 -1.56,-2.55 -1.97,-2.96 -0.82,-0.16 -1.73,-0.33 -2.72,-0.41 -0.9,-0.08 -1.81,-0.08 -2.63,-0.08 -8.23,0 -15.97,2.05 -23.38,6.25 -7.41,4.2 -14.32,9.3 -20.74,15.31 -6.42,6.01 -12.35,12.43 -17.7,19.26 -5.43,6.84 -10.12,13.01 -14.16,18.44 -3.21,13.09 -6.75,26.92 -10.7,41.65 -3.95,14.66 -7.82,30.05 -11.69,46.18l0 6.01c0,4.86 -0.16,9.72 -0.49,14.74 -0.33,4.94 -1.32,9.38 -2.88,13.25 -1.81,2.39 -4.37,4.44 -7.66,6.17 -3.29,1.65 -7.08,2.47 -11.44,2.47 -6.75,0 -11.77,-2.22 -15.15,-6.58 -3.37,-4.45 -5.1,-9.63 -5.1,-15.56 0,-2.72 0.41,-5.6 1.24,-8.48z"/>
   <path id="_6" class="fil2" d="M8335.06 8604.89c0,-4.69 0.57,-10.21 1.72,-16.79 1.07,-6.51 1.65,-14.57 1.65,-24.2 -5.27,3.86 -11.19,8.47 -17.62,13.74 -6.42,5.27 -13.08,10.37 -20,15.23 -6.91,4.77 -13.74,8.81 -20.58,12.1 -6.83,3.29 -13.25,4.94 -19.18,4.94 -4.85,0 -9.46,-0.66 -13.74,-2.14 -4.37,-1.4 -8.07,-3.38 -11.11,-5.76 -8.57,-6.75 -14.66,-13.5 -18.44,-20.25 -3.79,-6.75 -5.68,-14.65 -5.68,-23.63 0,-4.03 0.33,-8.23 1.07,-12.59 0.74,-4.28 1.81,-9.3 3.29,-14.9 6.09,-25.44 16.54,-48.98 31.44,-70.54 14.9,-21.65 33.34,-40.09 55.32,-55.4 8.56,-5.93 17.04,-9.71 25.6,-11.44 8.48,-1.65 16.96,-2.56 25.27,-2.56 3.7,0 7.9,0.25 12.43,0.75 4.61,0.49 8.73,0.98 12.43,1.48 3.7,-0.83 6.75,-1.4 9.05,-1.73 2.31,-0.33 4.78,-0.5 7.33,-0.5 4.86,0 8.89,0.66 12.1,1.98 3.21,1.23 5.76,2.96 7.74,5.19 1.89,2.14 3.29,4.69 4.2,7.49 0.9,2.8 1.31,5.76 1.31,8.8 0,4.12 -0.66,8.15 -1.89,11.94 -1.32,3.79 -2.63,7.57 -3.87,11.44l-31.85 127.1c-0.66,6.91 -1.24,13.25 -1.65,19.01 -0.5,5.76 -1.48,11.2 -2.96,16.13 -0.42,1.49 -1.07,3.3 -1.82,5.44 -0.65,2.22 -1.81,4.28 -3.45,6.34 -1.65,1.97 -3.62,3.7 -6.01,5.18 -2.47,1.4 -5.6,2.14 -9.47,2.14 -4.94,0 -8.89,-0.33 -11.93,-0.99 -2.97,-0.65 -5.27,-1.56 -6.84,-2.71 -1.64,-1.24 -2.63,-2.72 -3.12,-4.37 -0.5,-1.72 -0.74,-3.7 -0.74,-5.92zm-80.1 -72.85c-0.57,2.3 -1.31,5.51 -1.97,9.63 -0.74,4.2 -1.16,8.4 -1.16,12.59 0,4.28 0.66,8.24 1.98,11.69 1.24,3.46 4.12,5.19 8.4,5.19 6.75,0 13.08,-1.48 18.93,-4.45 5.93,-2.96 11.36,-6.58 16.54,-10.78 6.92,-5.6 13.92,-11.93 21.08,-18.93 7.16,-7 13.91,-14.32 20.25,-22.06 6.42,-7.74 12.01,-15.64 16.95,-23.71 4.86,-8.15 8.48,-16.21 10.7,-24.28 1.24,-4.61 2.39,-10.04 3.21,-16.14 0.91,-6.09 1.4,-11.6 1.4,-16.38 0,-2.14 -0.49,-4.19 -1.48,-6.17 -0.99,-1.98 -2.8,-3.05 -5.51,-3.05 -7.91,0 -15.81,1.57 -23.79,4.61 -7.99,3.05 -15.64,7.17 -23.05,12.27 -7.41,5.19 -14.41,11.28 -21.07,18.27 -6.67,7 -12.76,14.41 -18.19,22.39 -5.52,7.99 -10.21,16.14 -14.16,24.62 -3.95,8.39 -6.92,16.7 -9.06,24.69z"/>
   <path id="_7" class="fil2" d="M8380.65 8726.63c-6.58,0 -11.6,-1.81 -14.9,-5.35 -3.29,-3.62 -4.93,-7.57 -4.93,-11.69 0,-6.83 1.97,-12.59 5.92,-17.53 3.95,-4.86 8.65,-9.22 14.08,-13.01 5.51,-3.78 11.11,-7.16 16.79,-10.12 5.68,-2.96 10.29,-5.93 13.66,-8.81 7.25,-6.09 13.67,-13.09 19.27,-20.99 5.59,-7.9 10.04,-15.23 13.25,-21.98 5.18,-10.62 10.04,-22.3 14.57,-35.15 4.61,-12.92 8.81,-26.17 12.68,-39.92 3.86,-13.74 7.4,-27.74 10.53,-41.81 3.13,-14.16 5.85,-27.83 8.32,-41.08 0.82,-3.79 1.23,-7.49 1.31,-10.95 0.08,-3.45 0.17,-6.83 0.33,-10.2 0.33,-8.4 1.15,-15.07 2.47,-20.17 1.24,-5.1 3.05,-8.97 5.35,-11.69 2.39,-2.72 5.19,-4.53 8.48,-5.43 3.29,-0.91 7.08,-1.32 11.44,-1.32 9.06,0 15.31,2.22 18.85,6.59 3.54,4.44 5.27,10.94 5.27,19.42 0,4.69 -0.66,11.69 -2.06,20.99 -1.31,9.3 -3.37,20.17 -6.01,32.6 -2.63,12.35 -5.92,25.76 -9.79,40.25 -3.87,14.49 -8.23,29.14 -13.25,44.12 -4.94,14.98 -10.46,29.63 -16.47,44.12 -6.09,14.49 -12.51,27.91 -19.42,40.34 -1.65,2.71 -3.54,5.51 -5.68,8.48 -2.23,3.04 -4.45,6 -6.92,8.97 -2.39,2.96 -4.77,5.84 -7.08,8.56 -2.3,2.71 -4.44,5.18 -6.42,7.49 -6.42,7.49 -12.43,14.16 -18.02,19.75 -5.68,5.6 -11.28,10.29 -16.8,14.08 -5.51,3.79 -11.11,6.67 -16.79,8.56 -5.6,1.98 -11.61,2.88 -18.03,2.88zm125.37 -394.7c0,-6.01 1.56,-11.11 4.61,-15.47 3.04,-4.37 6.83,-7.99 11.28,-10.87 3.54,-2.22 6.75,-4.03 9.54,-5.43 2.8,-1.32 5.85,-2.06 9.06,-2.06 4.36,0 7.98,0.74 10.95,2.06 2.96,1.4 5.35,3.21 7.16,5.6 1.73,2.3 2.96,4.85 3.7,7.65 0.74,2.88 1.07,5.68 1.07,8.56 0,5.85 -0.98,11.28 -3.13,16.46 -2.05,5.11 -6.17,10.13 -12.26,14.9 -2.3,1.81 -4.53,3.21 -6.75,4.28 -2.3,0.99 -4.61,1.57 -7,1.57 -8.23,0 -14.98,-2.47 -20.25,-7.25 -5.35,-4.85 -7.98,-11.52 -7.98,-20z"/>
   <path id="_8" class="fil2" d="M8700.37 8604.89c0,-4.69 0.57,-10.21 1.72,-16.79 1.07,-6.51 1.65,-14.57 1.65,-24.2 -5.27,3.86 -11.19,8.47 -17.62,13.74 -6.42,5.27 -13.08,10.37 -20,15.23 -6.91,4.77 -13.74,8.81 -20.58,12.1 -6.83,3.29 -13.25,4.94 -19.18,4.94 -4.85,0 -9.46,-0.66 -13.74,-2.14 -4.37,-1.4 -8.07,-3.38 -11.11,-5.76 -8.57,-6.75 -14.66,-13.5 -18.44,-20.25 -3.79,-6.75 -5.68,-14.65 -5.68,-23.63 0,-4.03 0.33,-8.23 1.07,-12.59 0.74,-4.28 1.81,-9.3 3.29,-14.9 6.09,-25.44 16.54,-48.98 31.44,-70.54 14.9,-21.65 33.34,-40.09 55.32,-55.4 8.56,-5.93 17.04,-9.71 25.6,-11.44 8.48,-1.65 16.96,-2.56 25.27,-2.56 3.7,0 7.9,0.25 12.43,0.75 4.61,0.49 8.73,0.98 12.43,1.48 3.7,-0.83 6.75,-1.4 9.05,-1.73 2.31,-0.33 4.78,-0.5 7.33,-0.5 4.86,0 8.89,0.66 12.1,1.98 3.21,1.23 5.76,2.96 7.74,5.19 1.89,2.14 3.29,4.69 4.2,7.49 0.9,2.8 1.31,5.76 1.31,8.8 0,4.12 -0.66,8.15 -1.89,11.94 -1.32,3.79 -2.63,7.57 -3.87,11.44l-31.85 127.1c-0.66,6.91 -1.24,13.25 -1.65,19.01 -0.5,5.76 -1.48,11.2 -2.96,16.13 -0.42,1.49 -1.07,3.3 -1.82,5.44 -0.65,2.22 -1.81,4.28 -3.45,6.34 -1.65,1.97 -3.62,3.7 -6.01,5.18 -2.47,1.4 -5.6,2.14 -9.47,2.14 -4.94,0 -8.89,-0.33 -11.93,-0.99 -2.97,-0.65 -5.27,-1.56 -6.84,-2.71 -1.64,-1.24 -2.63,-2.72 -3.12,-4.37 -0.5,-1.72 -0.74,-3.7 -0.74,-5.92zm-80.1 -72.85c-0.57,2.3 -1.31,5.51 -1.97,9.63 -0.74,4.2 -1.16,8.4 -1.16,12.59 0,4.28 0.66,8.24 1.98,11.69 1.24,3.46 4.12,5.19 8.4,5.19 6.75,0 13.08,-1.48 18.93,-4.45 5.93,-2.96 11.36,-6.58 16.54,-10.78 6.92,-5.6 13.92,-11.93 21.08,-18.93 7.16,-7 13.91,-14.32 20.25,-22.06 6.42,-7.74 12.01,-15.64 16.95,-23.71 4.86,-8.15 8.48,-16.21 10.7,-24.28 1.24,-4.61 2.39,-10.04 3.21,-16.14 0.91,-6.09 1.4,-11.6 1.4,-16.38 0,-2.14 -0.49,-4.19 -1.48,-6.17 -0.99,-1.98 -2.8,-3.05 -5.51,-3.05 -7.91,0 -15.81,1.57 -23.79,4.61 -7.99,3.05 -15.64,7.17 -23.05,12.27 -7.41,5.19 -14.41,11.28 -21.07,18.27 -6.67,7 -12.76,14.41 -18.19,22.39 -5.52,7.99 -10.21,16.14 -14.16,24.62 -3.95,8.39 -6.92,16.7 -9.06,24.69z"/>
   <g style="clip-path:url(#id0)">
    <image x="8442.78" y="8225.66" width="183.25" height="183.25" xlink:href="logo3_Images\logo3_ImgID1.png"/>
   </g>
   <path class="fil3" d="M8509.04 8344.31c0.74,3.89 -7.25,1.58 -3.22,-2.47 1.41,-1.41 1.37,-1.68 1.93,-0.74 -0.23,0.54 -0.86,1.08 -1.32,1.49 -1.78,1.6 -0.23,3.05 1.07,2.78 0.8,-0.16 0.88,-0.77 1.54,-1.06zm8.92 -10.06c1.32,2.85 -2.7,4.77 -4.25,2.34 -1.72,-2.72 2.22,-5.15 4,-2.78 -0.1,0.28 -2.02,2.48 -2.67,2.51l-0.35 -0.41c0.24,-0.68 0.94,-1.01 1.38,-1.56 0.34,-0.43 0.17,-0.4 0.16,-0.44 -1.73,-0.77 -2.6,1.87 -1.23,2.63 0.85,0.48 1.73,0.07 2.03,-0.45 0.55,-0.97 -0.27,-1.27 0.93,-1.84zm3.79 -3.83c1.17,3.37 -3,4.57 -4.26,2.39 -1.65,-2.86 2.4,-5.27 4,-2.7 -0.29,0.64 -0.82,0.92 -1.37,1.44 -0.53,0.5 -0.76,1.13 -1.51,0.91 -0.33,-0.89 1.1,-1.54 1.55,-2.32 -1.97,-0.69 -2.81,1.75 -1.37,2.61 0.72,0.44 1.66,0.13 1.98,-0.4 0.6,-0.95 -0.19,-1.36 0.98,-1.93zm-36.36 2.52c0.47,1.23 0.8,2.38 1.3,3.65l1.6 3.28c0.58,0.15 0.51,0.27 1.13,0.87l0.7 0.51c0.86,0.5 1.18,1.33 2.76,2.13 0.34,0.17 0.56,0.25 0.88,0.5l1.63 1.42c0.02,0.03 0.05,0.06 0.07,0.09 1.06,1 4.74,3.07 5.72,3.3 -0.64,-1.8 0.49,-3.36 2.09,-3.43 1.4,-0.05 3.04,1.86 3.37,2.43l-0.54 0.52c-0.64,-0.51 -1.31,-1.51 -1.99,-1.86 -1.21,-0.59 -2.13,0.2 -2.22,1.34 0.02,-0.03 0.06,-0.11 0.08,-0.08l0.22 -0.22c0.41,0.23 0.36,0.18 0.86,0.34l2.89 1.24c0.43,0.14 0.59,0.06 1.03,0.2 0.82,0.28 -0.12,0.29 2,0.74 0.59,0.13 0.59,0.17 1.07,0.3 2.26,0.64 0.67,0.26 1.63,0.67l1.15 0.37c0.03,0 0.07,0.02 0.11,0.04l0.77 0.28c1.77,0.42 2.67,0.52 4.84,0.52l-2.28 0.29c5.22,0 3.74,1.09 12.36,-0.13 2.3,-0.32 5.96,-1.2 8.09,-1.99 0.88,-0.33 1.75,-0.59 2.56,-0.94 5.56,-2.5 2.61,-0.88 8.85,-4.6 0.73,-0.42 1.23,-0.95 2,-1.36 1.71,-0.92 4.01,-3.64 5.37,-4.86 0.77,1.06 2.03,1.57 2.81,2.67 -0.06,-0.14 -0.51,-0.74 -0.83,-0.97 0.2,-0.23 0.25,-0.45 0.66,-0.73l0.4 -0.21c0.41,-0.25 0.13,-0.01 0.5,-0.41 0.19,-0.21 0.26,-0.3 0.42,-0.5l1.77 -1.9c1.5,-1.36 0.52,-0.31 1.76,-2.05 0.29,-0.4 0.5,-0.64 0.81,-1.02 1.97,-2.34 4.03,-5.14 5.26,-7.87 0.2,-0.46 0.31,-0.81 0.55,-1.28l3.25 -8.05c0.13,-0.42 0.3,-1.06 0.45,-1.38 0.17,-0.37 0.08,-0.15 0.17,-0.3 0.8,-1.23 1.09,-4.62 1.08,-5.92 -0.01,-2.06 0.46,-4.22 1,-6.04l0.67 -3.46c0.28,-0.16 0.13,-0.07 0.49,-0.17 -0.47,-1.77 -1.5,-4.26 -2.29,-5.76l-0.31 0.43c-0.71,0.01 -1.35,-0.18 -1.91,0.41 -0.23,0.25 -0.03,-0.03 -0.19,0.28 -0.14,0.26 -0.08,0.34 -0.24,0.68l-1.9 -0.15 0.13 -0.44c-0.87,-0.28 0.21,-0.18 -0.82,-0.2 -0.39,-0.01 -0.52,-0.05 -0.94,0 -0.93,0.09 -2.11,0.09 -2.9,0.6 -0.81,0.53 -1.73,0.59 -1.73,1.78 -0.76,0.03 -1.29,0.38 -1.65,0.79 -0.37,0.41 -0.5,1.01 -0.74,1.42 -0.19,0.32 -0.03,-0.08 -0.2,0.35 -0.19,0.46 0.03,0.28 -0.27,0.68 -1.08,1.43 0.08,0.81 -1.17,1.9 -0.03,0.01 -0.05,0.04 -0.08,0.07l-0.15 0.15c-0.02,0.03 -0.05,0.06 -0.08,0.08 -0.01,0.02 -0.04,0.06 -0.07,0.08l-4.16 3.27c0,0 -0.69,0.07 -0.9,0.08 -0.09,0.35 -0.15,0.43 -0.16,0.9 -0.41,-0.08 -5.98,0.92 -6.23,1.19 -0.67,0.69 0.88,0.19 -1.44,1.07l-2.18 1.47c-0.29,0.43 -0.38,0.69 -0.72,1.12 -0.33,0.4 -0.39,0.86 -0.79,1.2 -0.54,0.46 -0.48,0.13 -0.98,0.85l-0.43 0.78c-0.02,0.03 -0.04,0.07 -0.06,0.1 0,0.03 -0.03,0.07 -0.05,0.1l-1.31 0.96c-0.02,0.01 -0.06,0.02 -0.08,0.03l-1.7 1.43c-0.2,0.16 -0.11,0.11 -0.37,0.25 -0.51,0.26 -1.18,0.27 -1.65,0.63l-1.18 0.81c-0.81,0.4 -3.44,2.18 -4.83,1.48l-1.51 1.04c-0.35,0.18 0.05,0.01 -0.3,0.16 -0.44,0.18 -0.17,0.12 -0.78,0.16 -1.22,0.08 -2.23,0.33 -3.23,0.57 -1.39,0.35 -1.71,-0.09 -3.24,0.29 -0.86,0.22 -0.72,0.1 -1.34,0.11 -0.52,0 -0.82,0.23 -1.47,0.24 0.1,0.36 0.11,0.28 0.29,0.6 -0.68,0.06 -0.81,0.25 -1.26,0.43l-1.15 0.38c-0.53,0.18 -1.81,0.03 -2.18,0.44 -0.22,0.25 -0.03,0.27 -0.03,0.23 0,-0.02 0.02,0.03 0.01,0.06l-6.73 0.78c-0.94,-0.06 -1.27,0.13 -2.12,-0.18 -0.42,-0.16 0.02,0.02 -0.41,-0.22 -0.49,-0.27 -0.93,-0.12 -1.52,-0.3 -0.33,-0.1 -0.63,-0.24 -1.07,-0.19 -0.02,0 -0.07,0.02 -0.09,0.02 -1.22,0.01 -1.9,-0.8 -3.37,-0.51 -0.16,-0.63 -0.32,-0.65 -0.98,-0.83 -0.04,-0.01 -0.33,-0.09 -0.36,-0.11 -0.43,-0.16 -0.17,-0.07 -0.31,-0.15 -0.26,-0.14 -0.2,-0.19 -0.6,-0.28 -0.91,1.12 -0.92,0.32 -2.01,1.01l-1.58 0.55c-0.94,0.36 -0.85,0.57 -1.08,1.11 -0.21,0.47 -0.6,0.42 -0.95,0.68 -0.54,0.41 -0.09,-0.01 -0.37,0.53l-0.15 0.3c-0.3,0.54 -0.31,0.78 -0.98,0.86 0.14,0.39 0.23,0.66 0.1,1.05 -0.18,0.52 -0.44,0.65 0.09,1.13 -0.38,0.22 -0.32,0.11 -0.64,0.44 -0.82,0.87 -1,0.51 -1.57,1.29l-1.7 1.47z"/>
   <path class="fil4" d="M8484.01 8327.08c0.25,0.97 0.39,1.99 0.64,3 0.24,0.92 0.46,1.94 0.74,2.86l1.7 -1.47c0.57,-0.78 0.75,-0.42 1.57,-1.29 0.32,-0.33 0.26,-0.22 0.64,-0.44 -0.53,-0.48 -0.27,-0.61 -0.09,-1.13 0.13,-0.39 0.04,-0.66 -0.1,-1.05 0.67,-0.08 0.68,-0.32 0.98,-0.86l0.15 -0.3c0.28,-0.54 -0.17,-0.12 0.37,-0.53 0.35,-0.26 0.74,-0.21 0.95,-0.68 0.23,-0.54 0.14,-0.75 1.08,-1.11l1.58 -0.55c1.09,-0.69 1.1,0.11 2.01,-1.01 0.4,0.09 0.34,0.14 0.6,0.28 0.14,0.08 -0.12,-0.01 0.31,0.15 0.03,0.02 0.32,0.1 0.36,0.11 0.66,0.18 0.82,0.2 0.98,0.83 1.47,-0.29 2.15,0.52 3.37,0.51 0.02,0 0.07,-0.02 0.09,-0.02 0.44,-0.05 0.74,0.09 1.07,0.19 0.59,0.18 1.03,0.03 1.52,0.3 0.43,0.24 -0.01,0.06 0.41,0.22 0.85,0.31 1.18,0.12 2.12,0.18l6.73 -0.78c0.01,-0.03 -0.01,-0.08 -0.01,-0.06 0,0.04 -0.19,0.02 0.03,-0.23 0.37,-0.41 1.65,-0.26 2.18,-0.44l1.15 -0.38c0.45,-0.18 0.58,-0.37 1.26,-0.43 -0.18,-0.32 -0.19,-0.24 -0.29,-0.6 0.65,-0.01 0.95,-0.24 1.47,-0.24 0.62,-0.01 0.48,0.11 1.34,-0.11 1.53,-0.38 1.85,0.06 3.24,-0.29 1,-0.24 2.01,-0.49 3.23,-0.57 0.61,-0.04 0.34,0.02 0.78,-0.16 0.35,-0.15 -0.05,0.02 0.3,-0.16l1.51 -1.04c1.39,0.7 4.02,-1.08 4.83,-1.48l1.18 -0.81c0.47,-0.36 1.14,-0.37 1.65,-0.63 0.26,-0.14 0.17,-0.09 0.37,-0.25l1.7 -1.43c0.02,-0.01 0.06,-0.02 0.08,-0.03l1.31 -0.96c0.02,-0.03 0.05,-0.07 0.05,-0.1 0.02,-0.03 0.04,-0.07 0.06,-0.1l0.43 -0.78c0.5,-0.72 0.44,-0.39 0.98,-0.85 0.4,-0.34 0.46,-0.8 0.79,-1.2 0.34,-0.43 0.43,-0.69 0.72,-1.12l2.18 -1.47c2.32,-0.88 0.77,-0.38 1.44,-1.07 0.25,-0.27 5.82,-1.27 6.23,-1.19 0.01,-0.47 0.07,-0.55 0.16,-0.9 0.21,-0.01 0.9,-0.08 0.9,-0.08l4.16 -3.27c0.03,-0.02 0.06,-0.06 0.07,-0.08 0.03,-0.02 0.06,-0.05 0.08,-0.08l0.15 -0.15c0.03,-0.03 0.05,-0.06 0.08,-0.07 1.25,-1.09 0.09,-0.47 1.17,-1.9 0.3,-0.4 0.08,-0.22 0.27,-0.68 0.17,-0.43 0.01,-0.03 0.2,-0.35 0.24,-0.41 0.37,-1.01 0.74,-1.42 0.36,-0.41 0.89,-0.76 1.65,-0.79 0,-1.19 0.92,-1.25 1.73,-1.78 0.79,-0.51 1.97,-0.51 2.9,-0.6 0.42,-0.05 0.55,-0.01 0.94,0 1.03,0.02 -0.05,-0.08 0.82,0.2l-0.13 0.44 1.9 0.15c0.16,-0.34 0.1,-0.42 0.24,-0.68 0.16,-0.31 -0.04,-0.03 0.19,-0.28 0.56,-0.59 1.2,-0.4 1.91,-0.41l0.31 -0.43 -0.91 -1.97c-0.59,0.14 -0.82,0.1 -1.49,0.18 -1.89,0.25 -1.03,0.16 -2.82,-0.03 -0.6,-0.07 -0.79,0.08 -1.36,0.09 -0.99,0.04 -0.65,-0.12 -1.28,-0.35 -0.83,-0.31 -1.83,-0.08 -2.65,0.09 -0.02,0.01 -0.07,0.01 -0.09,0.02 -0.48,0.09 -0.52,0.24 -1.01,0.55 -0.56,-0.19 -1.1,-0.65 -1.37,-1.08l-0.45 0.23c-0.27,0.14 -0.12,0.01 -0.31,0.19l-0.44 0.55c0.44,0.67 1.01,0.83 1.13,1.78 -0.17,0.11 -0.32,0.22 -0.56,0.26 -2.49,0.49 -1.13,0.49 -1.29,2.24 -0.07,0.62 -0.4,1.17 -0.61,1.56 -0.5,-0.15 -0.61,-0.41 -0.98,-0.75 -0.63,0.78 -1.8,0.75 -2.86,0.46 0.08,0.57 0.51,0.63 0.83,1.33 -0.43,0.74 -0.97,0.99 -1.59,1.41l-1.64 0.66c0.28,0.84 0.27,0.16 0.46,1.08 -1.38,0.78 -0.74,-0.42 -2.12,-0.62 0.47,2.51 -0.2,2.83 -1.52,3.99l-0.56 -0.57c0.28,-0.55 1.1,-1.08 1.26,-1.62 0.22,-0.79 -0.25,-1.5 -0.79,-1.73 -1.94,-0.81 -1.48,1.75 -4.02,1.2l1.35 -1.52c-0.9,0.03 -1.52,0.41 -2.36,0.64 -2.27,0.63 -3.28,1.2 -5.13,2.52l-2.02 1.5c-0.56,0.43 -0.68,1.01 -1.11,1.47 -0.01,0.01 -0.22,0.24 -0.22,0.24 -0.44,0.53 -0.8,0.82 -1.16,1.44 -0.87,1.46 -1.04,0.89 -1.8,1.38 -0.01,0.01 -0.04,0.03 -0.05,0.04l-0.14 0.18c-0.01,0.02 -0.03,0.07 -0.04,0.08 -0.01,0.01 -0.08,0.12 -0.12,0.14 -0.67,-0.14 -0.77,-0.02 -0.93,-0.6 -0.28,0.32 -0.36,0.38 -0.7,0.25l-0.13 -0.07c-0.01,0 -0.04,-0.01 -0.06,-0.01l-1.01 -0.47c-0.59,-0.43 -1.39,-0.52 -2.03,-0.82 -0.84,-0.39 -0.46,-0.36 -1.39,-0.1 0.6,0.97 2.16,2.01 2.47,2.93 -1.19,-0.44 -2.97,-3.14 -4.12,-3.58 -0.96,-0.38 -2.03,-0.11 -2.96,0.03 -0.45,0.07 -0.52,0.07 -0.73,0.12l-0.53 0.1c-0.27,0.06 -0.1,0.02 -0.27,0.08 -0.4,0.17 -0.42,0.29 -1.05,0.31l-0.01 0.32c1.06,0 1.3,-0.25 2.11,0.1 -0.7,0.02 -2.01,0.23 -2.73,0.3 -1.28,0.12 -2.81,0.29 -3.91,0.69l-2.82 1.46c-0.18,0.05 -0.05,0.03 -0.27,0.04l0.45 0.42c-0.38,0.18 -2.3,0.36 -2.9,0.49 -0.07,-0.11 -0.05,-0.09 -0.11,-0.25l-0.05 -0.19c-0.68,0.16 -0.45,0.3 -1.06,0.45 -0.03,-0.03 -0.05,-0.09 -0.05,-0.11 -0.48,-0.91 -0.67,-0.3 -1.61,-0.51 -0.84,-0.17 -1.57,-0.3 -2.23,-0.7 -0.64,-0.38 -0.52,-0.06 -1.24,-0.27 -0.52,-0.15 -0.76,-0.5 -1.43,-0.72l-0.95 -0.42c-0.01,0 -0.5,-0.09 -0.52,-0.09 -0.85,-0.14 -1.91,-0.14 -2.73,-0.01 -1.03,0.15 -1.45,0.21 -2.22,0.68 -0.03,0.01 -0.07,0.03 -0.1,0.05l-0.9 0.48c-0.42,0.21 -0.52,0.21 -0.91,0.46 -0.74,0.5 -0.06,0.17 -0.96,0.43 -0.97,0.27 -0.45,0.78 -1.63,2.17 -1.82,2.14 -1,0.92 -1.38,3.19 -0.2,1.12 -0.65,1.89 -0.8,3.01 -0.19,1.25 -0.4,1.06 -0.73,2 -0.01,0.02 -0.02,0.06 -0.03,0.08l-0.69 1.23c-0.88,0.72 -0.37,1.94 -1.15,2.82 -0.02,0.02 -0.05,0.05 -0.08,0.08l-0.54 0.36c-0.39,0.27 -0.35,0.4 -0.95,0.46z"/>
   <path class="fil5" d="M8484.17 8313.35c-0.03,0.03 -0.05,0.05 -0.05,0.1 -0.01,0.05 -0.03,0.08 -0.03,0.09l-0.53 6.39 0.64 -0.02c0.06,-0.7 0.39,-1.17 0.5,-1.78l0.84 -2.55c0.29,-0.64 0.1,-1.01 0.43,-1.58 0.36,-0.64 0.24,-0.19 0.64,-0.38 0.95,-0.44 0.93,-2.39 1.96,-2.93l2.64 -1.35c0.65,-0.4 0.3,-0.47 0.8,-0.85 0.32,-0.26 -0.12,0.11 0.19,-0.13 0.02,-0.02 0.06,-0.05 0.08,-0.07l0.56 -0.5c0.03,-0.02 0.07,-0.05 0.1,-0.06l0.98 -0.55c0.94,-0.47 0.72,-0.49 1.09,-1.4 0.36,-0.02 0.9,-0.01 1.23,-0.06l0.89 -0.35c0.13,-0.07 0.76,-0.26 0.93,-0.29 0.56,-0.14 1.52,0.04 2.03,0.12l0.97 0.07c0.92,0.04 0.13,0.07 0.87,0.23 0.54,0.12 0.69,-0.06 1.14,-0.1 0.27,0.65 0.77,0.64 1.39,0.78 0.83,0.17 0.99,-0.29 1.22,0.57l1.67 0.02c0.02,0 0.06,-0.02 0.08,-0.02 0.35,-0.03 -0.01,-0.16 0.37,0.04 0.21,0.1 0.35,0.27 0.5,0.42 0.69,-0.48 0.58,-0.7 1.46,-0.87l0.89 -0.16c0.96,-0.18 0.64,0.12 1.42,-0.54l1.96 -1.05c2.88,-0.42 -0.15,-1.29 4.15,-0.56 0.78,0.13 1.69,-0.07 2.34,-0.07 0.78,0.01 1,0.64 1.72,1.02 -0.21,-0.56 -0.56,-0.82 -0.97,-1.28 -0.32,-0.37 -0.65,-0.75 -0.98,-1.05l0.16 -0.11c0.16,-0.08 1.27,-0.24 2.11,-0.61 0.16,-0.08 0.35,-0.14 0.44,-0.16 0.38,-0.07 0.79,-0.02 1.18,-0.02 1.6,-0.03 1.07,-0.5 2.99,0.03 0.91,0.25 2.41,0.37 3.42,0.24 0.8,-0.1 0.51,-0.27 0.9,-0.47l3.3 -1.45c0.21,-0.16 0.51,-0.58 0.68,-0.66 0.54,-0.26 -0.03,0.16 0.83,-0.1 0.33,-0.1 3.7,-2.44 7.81,-3.19 1.07,-0.18 1.41,-0.44 1.93,-0.51 1,-0.14 2.1,-0.12 3.1,-0.43l1.31 -0.22 -0.07 -3.25c1.68,-0.04 1.65,0.31 2.3,-0.79 -0.05,0.39 0.04,0.66 0.27,0.89 0.32,-0.48 0.78,-0.73 1.16,-1.14 0.65,-0.68 0.43,-0.93 0.79,-1.51 0.32,-0.48 0.6,-0.16 1.23,-0.13 0.06,-0.59 0.3,-1.56 0.68,-2.04 0.33,-0.41 -0.11,-0.15 0.7,-0.09 0.04,-0.5 0.13,-0.84 0.53,-1.15 0.48,-0.37 3.27,-0.68 3.78,-0.47 0.65,0.26 -0.31,0.09 0.57,0.26 -0.14,2.29 1.95,3.73 3.95,2.73 0.65,-0.33 0.35,-0.08 0.6,-0.64 -0.57,-0.08 -0.3,-0.02 -0.76,-0.15 -0.01,-0.03 -0.01,-0.07 -0.01,-0.08 0,-0.01 0,-0.05 0,-0.07l0.17 -0.63c0.09,-0.45 0.03,-0.64 0.01,-1.1 -0.78,0.44 -1.41,1.12 -2.01,1.44l-0.32 -0.34c0.28,-0.39 1.23,-1.31 1.37,-1.9 -2.05,-0.3 -1.57,0.67 -2.27,1.3 -1.05,-0.7 0.18,-1.46 0.53,-2.14 -0.28,-0.54 -0.59,-0.63 -0.93,-1.13 -2.39,-0.09 -1.1,0.03 -1.81,-1.06 -0.39,-0.6 -1.2,-0.39 -1.78,-0.5 -0.61,-0.11 0.13,0.04 -0.43,-0.21 -0.67,-0.3 -1.62,-0.09 -2.3,-0.18 -1.24,-0.17 -2.53,0.2 -3.72,-0.09 -0.9,-0.22 -3.14,-0.05 -4.72,-0.47 -0.72,-0.19 -1.17,-0.13 -1.94,-0.19 -0.12,0.35 -0.11,-0.12 0.07,0.19 0.23,0.4 0.2,-0.24 0.08,0.09 -0.84,-0.02 -0.86,-0.11 -1.5,0.21 -0.71,0.35 -0.24,0.29 -1.06,0.07 -1,-0.28 -0.58,0 -1.16,0.11 -0.33,0.05 -0.72,-0.12 -1.32,-0.11 -1.68,0.04 -3.51,1.68 -4.24,1.9l-3.84 1.52c-0.2,0.07 -0.34,0.08 -0.54,0.24 -0.12,0.08 -0.25,0.29 -0.36,0.41 -0.45,0.46 -0.91,0.43 -1.39,0.89 -0.53,0.52 -0.28,0.29 -0.96,0.56 -0.46,0.18 -0.58,0.3 -0.95,0.58 -1.12,0.85 -2.05,0.98 -3.27,1.46 -2.54,0.99 -3.58,0.98 -4.73,1.37 -0.35,0.12 -0.18,0.03 -0.5,0.29 -1.24,1.03 -1.38,0.56 -3.04,0.75 -0.82,0.1 -0.4,0.24 -1.12,0.42 -0.64,0.15 -0.62,-0.03 -1.27,0.26 -0.31,0.14 -0.73,0.37 -1.01,0.52 -0.29,0.13 -0.05,0.02 -0.32,0.14l-2.12 1.17c-0.13,0.07 -0.08,-0.05 -0.41,0.11 0.51,1.52 4.46,4.46 5.6,6.11 -1.23,-0.88 -3.15,-3.03 -4.36,-4.17 -0.58,-0.55 -1.57,-1.8 -2.4,-1.72 -0.83,0.09 -1.08,0.07 -1.45,0.67l-3.59 3.77c-0.4,0.28 -0.23,0.16 -0.7,0.38 -0.38,0.17 -0.38,0.21 -0.67,0.39l-0.29 0.18c-0.03,0.02 -0.06,0.04 -0.1,0.05l-1.66 0.94c-1.3,0.39 -1.13,0.38 -2.27,0.93 -0.97,0.45 -0.65,0.88 -2.17,0.96 -0.31,0.66 -0.4,0.83 -1.3,0.9 0.12,0.51 0.57,0.49 -0.1,0.8 -0.36,0.16 -0.76,0.09 -1.2,0.36l-1.03 0.53c-0.48,0.18 0.03,-0.06 -0.3,0.14l-0.18 0.11c-0.18,0.15 -0.5,0.49 -0.39,0.86l0.05 0.1c0.02,0.38 -0.62,0.36 -1,0.45 -0.83,0.22 -2.54,1.99 -3.34,2.6l-0.43 0.34c-0.14,0.11 -0.14,0.1 -0.26,0.19 -0.02,0.02 -0.05,0.06 -0.08,0.08 -0.03,0.02 -0.06,0.05 -0.08,0.06l-1.76 1.9c-0.02,0.03 -0.1,0.14 -0.13,0.18 -0.36,0.52 -0.41,1.25 -1.12,1.81l-0.18 0.14z"/>
   <path class="fil6" d="M8483.56 8319.93c0,1.35 0,2.52 0.13,3.64 0.06,0.64 0.08,1.17 0.14,1.67 0.1,0.73 0.18,1.11 0.18,1.84 0.6,-0.06 0.56,-0.19 0.95,-0.46l0.54 -0.36c0.03,-0.03 0.06,-0.06 0.08,-0.08 0.78,-0.88 0.27,-2.1 1.15,-2.82l0.69 -1.23c0.01,-0.02 0.02,-0.06 0.03,-0.08 0.33,-0.94 0.54,-0.75 0.73,-2 0.15,-1.12 0.6,-1.89 0.8,-3.01 0.38,-2.27 -0.44,-1.05 1.38,-3.19 1.18,-1.39 0.66,-1.9 1.63,-2.17 0.9,-0.26 0.22,0.07 0.96,-0.43 0.39,-0.25 0.49,-0.25 0.91,-0.46l0.9 -0.48c0.03,-0.02 0.07,-0.04 0.1,-0.05 0.77,-0.47 1.19,-0.53 2.22,-0.68 0.82,-0.13 1.88,-0.13 2.73,0.01 0.02,0 0.51,0.09 0.52,0.09l0.95 0.42c0.67,0.22 0.91,0.57 1.43,0.72 0.72,0.21 0.6,-0.11 1.24,0.27 0.66,0.4 1.39,0.53 2.23,0.7 0.94,0.21 1.13,-0.4 1.61,0.51 0,0.02 0.02,0.08 0.05,0.11 0.61,-0.15 0.38,-0.29 1.06,-0.45l0.05 0.19c0.06,0.16 0.04,0.14 0.11,0.25 0.6,-0.13 2.52,-0.31 2.9,-0.49l-0.45 -0.42c0.22,-0.01 0.09,0.01 0.27,-0.04l2.82 -1.46c1.1,-0.4 2.63,-0.57 3.91,-0.69 0.72,-0.07 2.03,-0.28 2.73,-0.3 -0.81,-0.35 -1.05,-0.1 -2.11,-0.1l0.01 -0.32c0.63,-0.02 0.65,-0.14 1.05,-0.31 0.17,-0.06 0,-0.02 0.27,-0.08l0.53 -0.1c0.21,-0.05 0.28,-0.05 0.73,-0.12 0.93,-0.14 2,-0.41 2.96,-0.03 1.15,0.44 2.93,3.14 4.12,3.58 -0.31,-0.92 -1.87,-1.96 -2.47,-2.93 0.93,-0.26 0.55,-0.29 1.39,0.1 0.64,0.3 1.44,0.39 2.03,0.82l1.01 0.47c0.02,0 0.05,0.01 0.06,0.01l0.13 0.07c0.34,0.13 0.42,0.07 0.7,-0.25 0.16,0.58 0.26,0.46 0.93,0.6 0.04,-0.02 0.11,-0.13 0.12,-0.14 0.01,-0.01 0.03,-0.06 0.04,-0.08l0.14 -0.18c0.01,-0.01 0.04,-0.03 0.05,-0.04 0.76,-0.49 0.93,0.08 1.8,-1.38 0.36,-0.62 0.72,-0.91 1.16,-1.44 0,0 0.21,-0.23 0.22,-0.24 0.43,-0.46 0.55,-1.04 1.11,-1.47l2.02 -1.5c1.85,-1.32 2.86,-1.89 5.13,-2.52 0.84,-0.23 1.46,-0.61 2.36,-0.64l-1.35 1.52c2.54,0.55 2.08,-2.01 4.02,-1.2 0.54,0.23 1.01,0.94 0.79,1.73 -0.16,0.54 -0.98,1.07 -1.26,1.62l0.56 0.57c1.32,-1.16 1.99,-1.48 1.52,-3.99 1.38,0.2 0.74,1.4 2.12,0.62 -0.19,-0.92 -0.18,-0.24 -0.46,-1.08l1.64 -0.66c0.62,-0.42 1.16,-0.67 1.59,-1.41 -0.32,-0.7 -0.75,-0.76 -0.83,-1.33 1.06,0.29 2.23,0.32 2.86,-0.46 0.37,0.34 0.48,0.6 0.98,0.75 0.21,-0.39 0.54,-0.94 0.61,-1.56 0.16,-1.75 -1.2,-1.75 1.29,-2.24 0.24,-0.04 0.39,-0.15 0.56,-0.26 -0.12,-0.95 -0.69,-1.11 -1.13,-1.78l0.44 -0.55c0.19,-0.18 0.04,-0.05 0.31,-0.19l0.45 -0.23c0.27,0.43 0.81,0.89 1.37,1.08 0.49,-0.31 0.53,-0.46 1.01,-0.55 0.02,-0.01 0.07,-0.01 0.09,-0.02 0.82,-0.17 1.82,-0.4 2.65,-0.09 0.63,0.23 0.29,0.39 1.28,0.35 0.57,-0.01 0.76,-0.16 1.36,-0.09 1.79,0.19 0.93,0.28 2.82,0.03 0.67,-0.08 0.9,-0.04 1.49,-0.18 -0.32,-0.62 -1.16,-2.29 -1.61,-2.83 -0.01,0 -0.05,-0.04 -0.08,-0.07 -1.38,-0.02 -2.28,-0.18 -3.51,-0.21 -0.72,-0.56 0.42,-0.2 -0.61,-0.46 -0.49,-0.13 -0.59,-0.16 -0.76,0.05 -0.25,0.56 0.05,0.31 -0.6,0.64 -2,1 -4.09,-0.44 -3.95,-2.73 -0.88,-0.17 0.08,0 -0.57,-0.26 -0.51,-0.21 -3.3,0.1 -3.78,0.47 -0.4,0.31 -0.49,0.65 -0.53,1.15 -0.81,-0.06 -0.37,-0.32 -0.7,0.09 -0.38,0.48 -0.62,1.45 -0.68,2.04 -0.63,-0.03 -0.91,-0.35 -1.23,0.13 -0.36,0.58 -0.14,0.83 -0.79,1.51 -0.38,0.41 -0.84,0.66 -1.16,1.14 -0.23,-0.23 -0.32,-0.5 -0.27,-0.89 -0.65,1.1 -0.62,0.75 -2.3,0.79l0.07 3.25 -1.31 0.22c-1,0.31 -2.1,0.29 -3.1,0.43 -0.52,0.07 -0.86,0.33 -1.93,0.51 -4.11,0.75 -7.48,3.09 -7.81,3.19 -0.86,0.26 -0.29,-0.16 -0.83,0.1 -0.17,0.08 -0.47,0.5 -0.68,0.66l-3.3 1.45c-0.39,0.2 -0.1,0.37 -0.9,0.47 -1.01,0.13 -2.51,0.01 -3.42,-0.24 -1.92,-0.53 -1.39,-0.06 -2.99,-0.03 -0.39,0 -0.8,-0.05 -1.18,0.02 -0.09,0.02 -0.28,0.08 -0.44,0.16 -0.84,0.37 -1.95,0.53 -2.11,0.61l-0.16 0.11c0.33,0.3 0.66,0.68 0.98,1.05 0.41,0.46 0.76,0.72 0.97,1.28 -0.72,-0.38 -0.94,-1.01 -1.72,-1.02 -0.65,0 -1.56,0.2 -2.34,0.07 -4.3,-0.73 -1.27,0.14 -4.15,0.56l-1.96 1.05c-0.78,0.66 -0.46,0.36 -1.42,0.54l-0.89 0.16c-0.88,0.17 -0.77,0.39 -1.46,0.87 -0.15,-0.15 -0.29,-0.32 -0.5,-0.42 -0.38,-0.2 -0.02,-0.07 -0.37,-0.04 -0.02,0 -0.06,0.02 -0.08,0.02l-1.67 -0.02c-0.23,-0.86 -0.39,-0.4 -1.22,-0.57 -0.62,-0.14 -1.12,-0.13 -1.39,-0.78 -0.45,0.04 -0.6,0.22 -1.14,0.1 -0.74,-0.16 0.05,-0.19 -0.87,-0.23l-0.97 -0.07c-0.51,-0.08 -1.47,-0.26 -2.03,-0.12 -0.17,0.03 -0.8,0.22 -0.93,0.29l-0.89 0.35c-0.33,0.05 -0.87,0.04 -1.23,0.06 -0.37,0.91 -0.15,0.93 -1.09,1.4l-0.98 0.55c-0.03,0.01 -0.07,0.04 -0.1,0.06l-0.56 0.5c-0.02,0.02 -0.06,0.05 -0.08,0.07 -0.31,0.24 0.13,-0.13 -0.19,0.13 -0.5,0.38 -0.15,0.45 -0.8,0.85l-2.64 1.35c-1.03,0.54 -1.01,2.49 -1.96,2.93 -0.4,0.19 -0.28,-0.26 -0.64,0.38 -0.33,0.57 -0.14,0.94 -0.43,1.58l-0.84 2.55c-0.11,0.61 -0.44,1.08 -0.5,1.78l-0.64 0.02z"/>
   <path class="fil7" d="M8486.76 8303.45c2.72,-0.09 1.76,-0.57 3.26,-1.54l0.64 -0.59c0.02,-0.03 0.04,-0.06 0.06,-0.09l0.37 -0.56c0.34,-0.58 0.2,-0.57 0.84,-0.96 0.73,-0.44 0.25,-0.28 0.64,-0.75 0.49,-0.61 1.63,-1.04 2.06,-1.45 0.2,-0.18 0.05,-0.08 0.24,-0.22 0.03,-0.01 0.36,-0.17 0.41,-0.2 0.67,-0.37 0.33,-0.65 0.83,-1.3 0.32,-0.41 0.46,-0.5 1.01,-0.66 0.04,-0.01 0.08,-0.02 0.12,-0.03 0.63,-0.2 0.83,-0.28 1.57,-0.28 -0.19,-0.48 -0.95,-0.22 -0.19,-0.77 0.69,-0.51 1.6,-0.48 2.11,-1.13 0.31,-0.4 0.97,-0.57 1.34,-0.96 0.45,-0.48 0.42,-0.44 0.94,-0.89 0.3,-0.26 0.66,-0.62 0.9,-0.93 1.46,-1.82 1.33,-1.23 2.01,-1.57 -0.21,-0.44 -0.21,-0.59 -0.59,-0.85 0.62,-0.18 0.77,-0.18 1.59,-0.22 0.41,-0.8 0.28,-0.57 1.07,-1.06l3.18 -2.02c0.27,-0.12 0.02,0.01 0.31,-0.14l3.34 -2.02c0.59,-0.31 0.49,-0.35 0.93,-0.74l1.74 -1.61c0.51,-0.32 1.71,-1.05 2.16,-1.52 0.49,-0.5 1.08,-0.82 1.67,-1.22 1.04,-0.72 1.36,-1.09 2.68,-1.28 0.37,-0.06 0.27,-0.04 0.6,-0.18l5.98 -1.88c0.02,-0.01 0.07,-0.02 0.09,-0.03l0.29 -0.11c0.33,-0.1 0.48,-0.11 0.73,-0.19 0.57,-0.21 0.54,-0.39 1.27,-0.57 1.32,-0.35 2.42,-0.17 3.66,-0.63l1.77 -0.36c1.6,-0.69 2.13,-0.36 3.7,-0.75 0.62,-0.14 0.91,0.48 1.77,0 0.26,0.47 -0.02,0.32 0.53,0.55l5.85 1.62c1.34,0.48 4.16,0.56 5.49,0.36 0.68,-0.1 1.54,0.1 1.89,-0.42 -1.87,-1.59 -7.18,-3.46 -9.74,-4.15 -9.57,-2.64 -21.28,-1.67 -30.67,1.46 -2.05,0.68 -3.15,1.21 -5.04,1.99 -1.85,0.77 -5,2.68 -6.62,3.9 -3.24,2.45 -4.98,5.18 -7.68,8.06l-3.93 4.92c-2.51,3.56 -4.6,7.28 -6.22,11.35 -0.33,0.83 -0.79,1.76 -0.96,2.62z"/>
   <path class="fil8" d="M8562.29 8345.41c-0.99,0.94 -1.85,1.62 -2.92,2.48l-3.65 2.31c-0.21,0.14 -0.21,0.14 -0.36,0.25l-4.01 2.42c-2.44,1.47 -6.07,3.15 -8.75,4.24 -2.81,1.12 -6.5,1.91 -7.84,2.44 0.77,0 1.21,-0.3 2.11,-0.3 -0.22,0.19 0.04,0.05 -0.41,0.25l-2.56 0.65c-3.16,0.79 -1.14,0.18 -2.33,0.86 -1.28,0.72 -12.67,0.29 -14.88,0.29 -2.93,0 -1.53,-0.11 -3.38,-0.29 -0.63,-0.07 -1.23,-0.07 -1.7,-0.13 -0.57,-0.08 -1.17,-0.19 -1.64,-0.21 0.27,0.33 0.66,0.38 1.08,0.59 13.62,6.59 29.03,6.98 42.76,0.16 5.59,-2.79 11.19,-7.55 14.9,-12.29 2.02,-2.6 3.74,-5.29 5.25,-8.33 0.8,-1.59 1.36,-2.87 2.05,-4.67 0.42,-1.1 1.6,-4.17 1.62,-5.36 -0.03,0.04 -0.08,0.07 -0.1,0.1l-2.41 3.47c-1.37,2.17 -2.73,3.26 -4.49,4.95l-3.58 3.29c-1.54,1.08 -0.25,0.11 -1.52,1.4l-1.62 1.27c-0.13,0.08 -0.12,0.06 -0.29,0.17 -0.09,0.06 -0.24,0.17 -0.26,0.18 -0.25,0.15 -0.59,0.39 -1.07,-0.19z"/>
   <path class="fil9" d="M8484.93 8309.07c-0.13,1.42 -0.76,2.67 -0.76,4.28l0.18 -0.14c0.71,-0.56 0.76,-1.29 1.12,-1.81 0.03,-0.04 0.11,-0.15 0.13,-0.18l1.76 -1.9c0.02,-0.01 0.05,-0.04 0.08,-0.06 0.03,-0.02 0.06,-0.06 0.08,-0.08 0.12,-0.09 0.12,-0.08 0.26,-0.19l0.43 -0.34c0.8,-0.61 2.51,-2.38 3.34,-2.6 0.38,-0.09 1.02,-0.07 1,-0.45l-0.05 -0.1c-0.11,-0.37 0.21,-0.71 0.39,-0.86l0.18 -0.11c0.33,-0.2 -0.18,0.04 0.3,-0.14l1.03 -0.53c0.44,-0.27 0.84,-0.2 1.2,-0.36 0.67,-0.31 0.22,-0.29 0.1,-0.8 0.9,-0.07 0.99,-0.24 1.3,-0.9 1.52,-0.08 1.2,-0.51 2.17,-0.96 1.14,-0.55 0.97,-0.54 2.27,-0.93l1.66 -0.94c0.04,-0.01 0.07,-0.03 0.1,-0.05l0.29 -0.18c0.29,-0.18 0.29,-0.22 0.67,-0.39 0.47,-0.22 0.3,-0.1 0.7,-0.38l3.59 -3.77c0.37,-0.6 0.62,-0.58 1.45,-0.67 0.83,-0.08 1.82,1.17 2.4,1.72 1.21,1.14 3.13,3.29 4.36,4.17 -1.14,-1.65 -5.09,-4.59 -5.6,-6.11 0.33,-0.16 0.28,-0.04 0.41,-0.11l2.12 -1.17c0.27,-0.12 0.03,-0.01 0.32,-0.14 0.28,-0.15 0.7,-0.38 1.01,-0.52 0.65,-0.29 0.63,-0.11 1.27,-0.26 0.72,-0.18 0.3,-0.32 1.12,-0.42 1.66,-0.19 1.8,0.28 3.04,-0.75 0.32,-0.26 0.15,-0.17 0.5,-0.29 1.15,-0.39 2.19,-0.38 4.73,-1.37 1.22,-0.48 2.15,-0.61 3.27,-1.46 0.37,-0.28 0.49,-0.4 0.95,-0.58 0.68,-0.27 0.43,-0.04 0.96,-0.56 0.48,-0.46 0.94,-0.43 1.39,-0.89 0.11,-0.12 0.24,-0.33 0.36,-0.41 0.2,-0.16 0.34,-0.17 0.54,-0.24l3.84 -1.52c0.73,-0.22 2.56,-1.86 4.24,-1.9 0.6,-0.01 0.99,0.16 1.32,0.11 0.58,-0.11 0.16,-0.39 1.16,-0.11 0.82,0.22 0.35,0.28 1.06,-0.07 0.64,-0.32 0.66,-0.23 1.5,-0.21 0.12,-0.33 0.15,0.31 -0.08,-0.09 -0.18,-0.31 -0.19,0.16 -0.07,-0.19 0.77,0.06 1.22,0 1.94,0.19 1.58,0.42 3.82,0.25 4.72,0.47 1.19,0.29 2.48,-0.08 3.72,0.09 0.68,0.09 1.63,-0.12 2.3,0.18 0.56,0.25 -0.18,0.1 0.43,0.21 0.58,0.11 1.39,-0.1 1.78,0.5 0.71,1.09 -0.58,0.97 1.81,1.06 0.34,0.5 0.65,0.59 0.93,1.13 -0.35,0.68 -1.58,1.44 -0.53,2.14 0.7,-0.63 0.22,-1.6 2.27,-1.3 -0.14,0.59 -1.09,1.51 -1.37,1.9l0.32 0.34c0.6,-0.32 1.23,-1 2.01,-1.44 0.02,0.46 0.08,0.65 -0.01,1.1l-0.17 0.63c0,0.02 0,0.06 0,0.07 0,0.01 0,0.05 0.01,0.08 0.46,0.13 0.19,0.07 0.76,0.15 0.17,-0.21 0.27,-0.18 0.76,-0.05 1.03,0.26 -0.11,-0.1 0.61,0.46 1.23,0.03 2.13,0.19 3.51,0.21 -0.16,-0.64 -2.47,-3.99 -3.01,-4.64l-3.59 -4.19c-0.83,-0.84 -1.67,-1.96 -2.71,-2.48 -0.94,0.19 -0.07,0.07 -0.57,-0.06 -1.87,-0.46 -2.04,0.19 -3.26,0.33 -1.32,0.16 -3.23,-0.06 -4.37,-0.02 -1.35,0.04 -3.04,0.07 -4.36,-0.22l-2.54 -0.51c-0.74,-0.33 -1.69,-0.36 -2.56,-0.49 -2.91,-0.42 -2.57,-0.36 -5.45,-0.01 -0.69,0.09 -3.78,0.75 -4.32,1.04l-1.44 0.84c-0.51,0.29 -0.53,0.21 -1.12,0.4l-6.48 2.86c-1.2,0.5 -1.91,1.15 -3.39,1.2 -0.38,0.54 -0.66,0.72 -1.26,1 -0.38,0.18 -0.14,0.09 -0.4,0.22l-0.94 0.44c-1.43,0.66 -2.69,1.51 -4.13,2.13 -0.03,0.02 -0.08,0.03 -0.1,0.05l-4.28 1.98c-0.25,0.13 -0.27,0.14 -0.53,0.24l-2.72 1.44c-1.1,0.42 -0.5,0.26 0.23,1.26 0.3,0.41 0.51,0.82 0.9,1.09l-1.05 -0.51c-0.03,0.01 -0.07,0.04 -0.1,0.05 -1.71,0.7 -0.69,0.04 -2.38,1.46l-0.33 0.29c-1.31,1.14 -1.56,1.75 -3.31,2.5l-2.06 1.15c-1.15,0.88 -0.97,0.5 -2.09,1.04l1.29 0.05c-0.46,0.44 -0.99,0.47 -1.59,0.78l-0.94 0.59c-0.17,0.09 -0.32,0.18 -0.5,0.27 -1.41,0.75 0.44,-0.03 -1.73,1.47l-1.05 0.79c-0.03,0.02 -0.07,0.05 -0.08,0.06l-0.8 0.74c-0.05,0.03 -0.28,0.18 -0.28,0.18 -1.56,0.96 -0.11,0.74 -2.26,2 -0.31,0.18 -0.2,0.05 -0.5,0.27 -0.53,0.36 -0.09,0.28 -0.89,0.65 -1.26,0.58 -2.58,1.81 -3.25,3l-0.59 0.06z"/>
   <path class="fil10" d="M8501.89 8347.69c0.2,1.22 1.39,1.92 2.09,2.75l-0.57 0.58c-0.75,-0.36 -1.77,-1.57 -2.23,-2.33 -0.98,-0.23 -4.66,-2.3 -5.72,-3.3 -0.02,-0.03 -0.05,-0.06 -0.07,-0.09l-1.63 -1.42c-0.32,-0.25 -0.54,-0.33 -0.88,-0.5 -1.58,-0.8 -1.9,-1.63 -2.76,-2.13l-0.7 -0.51c-0.62,-0.6 -0.55,-0.72 -1.13,-0.87 0.15,0.67 1.31,2.4 1.71,3.04 0.67,1.07 1.23,1.93 1.98,2.9 0.73,0.98 3.7,4.62 4.55,5.07 0.68,-0.01 1.22,-1.06 1.76,-1.45 0.71,-0.52 1.91,-0.51 2.63,-0.04 2.66,1.77 -0.14,4.39 -0.14,4.39 1.01,0.05 0.89,0.31 1.65,0.68 0.62,0.31 1.14,0.35 1.8,0.63 0.57,0.26 1.09,0.49 1.66,0.64 2,0.54 8.15,1.52 10.21,1.69l6.71 0.32c0.99,0 1.32,-0.16 2.27,-0.16 1.55,0 4.32,0.16 5.74,-0.23l2.79 -0.79c-0.87,0.08 -1.52,0.45 -2.58,0.45 0.28,-0.2 -0.03,-0.05 0.44,-0.22 0.21,-0.08 0.2,-0.06 0.5,-0.12 5.45,-1.1 11.76,-3.41 16.5,-6.24 0.66,-0.4 1.16,-0.53 1.8,-0.95 0.71,-0.48 2.67,-1.82 3.4,-1.98 1.12,-0.25 1.5,-0.72 2.43,-1.81 0.02,-0.02 0.04,-0.05 0.07,-0.08l3.25 -2.82c-0.18,-0.54 -0.2,-0.5 -0.58,-0.92 -0.28,-0.31 -0.34,-0.35 -0.54,-0.7 -0.78,-1.1 -2.04,-1.61 -2.81,-2.67 -1.36,1.22 -3.66,3.94 -5.37,4.86 -0.77,0.41 -1.27,0.94 -2,1.36 -6.24,3.72 -3.29,2.1 -8.85,4.6 -0.81,0.35 -1.68,0.61 -2.56,0.94 -2.13,0.79 -5.79,1.67 -8.09,1.99 -8.62,1.22 -7.14,0.13 -12.36,0.13l2.28 -0.29c-2.17,0 -3.07,-0.1 -4.84,-0.52l-0.77 -0.28c-0.04,-0.02 -0.08,-0.04 -0.11,-0.04l-1.15 -0.37c-0.96,-0.41 0.63,-0.03 -1.63,-0.67 -0.48,-0.13 -0.48,-0.17 -1.07,-0.3 -2.12,-0.45 -1.18,-0.46 -2,-0.74 -0.44,-0.14 -0.6,-0.06 -1.03,-0.2l-2.89 -1.24c-0.5,-0.16 -0.45,-0.11 -0.86,-0.34l-0.22 0.22c-0.02,-0.03 -0.06,0.05 -0.08,0.08z"/>
   <path class="fil11" d="M8558.3 8341.17c0.2,0.35 0.26,0.39 0.54,0.7 0.38,0.42 0.4,0.38 0.58,0.92 0.24,0.32 0.94,1.08 1.35,1.27 0.77,0.37 1.3,0.36 1.52,1.35 0.48,0.58 0.82,0.34 1.07,0.19 0.02,-0.01 0.17,-0.12 0.26,-0.18 0.17,-0.11 0.16,-0.09 0.29,-0.17l1.62 -1.27c1.27,-1.29 -0.02,-0.32 1.52,-1.4l3.58 -3.29c1.76,-1.69 3.12,-2.78 4.49,-4.95l2.41 -3.47c0.02,-0.03 0.07,-0.06 0.1,-0.1 0.71,-0.66 1.57,-8.25 1.77,-9.59l0.15 -6.58c-0.36,-2.4 -0.19,-4.68 -0.92,-8.26 -0.43,-2.12 -1.16,-5.6 -1.92,-7.43 -0.36,0.1 -0.21,0.01 -0.49,0.17l-0.67 3.46c-0.54,1.82 -1.01,3.98 -1,6.04 0.01,1.3 -0.28,4.69 -1.08,5.92 -0.09,0.15 0,-0.07 -0.17,0.3 -0.15,0.32 -0.32,0.96 -0.45,1.38l-3.25 8.05c-0.24,0.47 -0.35,0.82 -0.55,1.28 -1.23,2.73 -3.29,5.53 -5.26,7.87 -0.31,0.38 -0.52,0.62 -0.81,1.02 -1.24,1.74 -0.26,0.69 -1.76,2.05l-1.77 1.9c-0.16,0.2 -0.23,0.29 -0.42,0.5 -0.37,0.4 -0.09,0.16 -0.5,0.41l-0.4 0.21c-0.41,0.28 -0.46,0.5 -0.66,0.73 0.32,0.23 0.77,0.83 0.83,0.97z"/>
   <path class="fil12" d="M8486.76 8303.45c-0.4,0.64 -0.66,1.82 -0.93,2.66 -0.28,0.87 -0.56,2.15 -0.9,2.96l0.59 -0.06c0.67,-1.19 1.99,-2.42 3.25,-3 0.8,-0.37 0.36,-0.29 0.89,-0.65 0.3,-0.22 0.19,-0.09 0.5,-0.27 2.15,-1.26 0.7,-1.04 2.26,-2 0,0 0.23,-0.15 0.28,-0.18l0.8 -0.74c0.01,-0.01 0.05,-0.04 0.08,-0.06l1.05 -0.79c2.17,-1.5 0.32,-0.72 1.73,-1.47 0.18,-0.09 0.33,-0.18 0.5,-0.27l0.94 -0.59c0.6,-0.31 1.13,-0.34 1.59,-0.78l-1.29 -0.05c1.12,-0.54 0.94,-0.16 2.09,-1.04l2.06 -1.15c1.75,-0.75 2,-1.36 3.31,-2.5l0.33 -0.29c1.69,-1.42 0.67,-0.76 2.38,-1.46 0.03,-0.01 0.07,-0.04 0.1,-0.05l1.05 0.51c-0.39,-0.27 -0.6,-0.68 -0.9,-1.09 -0.73,-1 -1.33,-0.84 -0.23,-1.26l2.72 -1.44c0.26,-0.1 0.28,-0.11 0.53,-0.24l4.28 -1.98c0.02,-0.02 0.07,-0.03 0.1,-0.05 1.44,-0.62 2.7,-1.47 4.13,-2.13l0.94 -0.44c0.26,-0.13 0.02,-0.04 0.4,-0.22 0.6,-0.28 0.88,-0.46 1.26,-1 1.48,-0.05 2.19,-0.7 3.39,-1.2l6.48 -2.86c0.59,-0.19 0.61,-0.11 1.12,-0.4l1.44 -0.84c0.54,-0.29 3.63,-0.95 4.32,-1.04 2.88,-0.35 2.54,-0.41 5.45,0.01 0.87,0.13 1.82,0.16 2.56,0.49l2.54 0.51c1.32,0.29 3.01,0.26 4.36,0.22 1.14,-0.04 3.05,0.18 4.37,0.02 1.22,-0.14 1.39,-0.79 3.26,-0.33 0.5,0.13 -0.37,0.25 0.57,0.06 -0.4,-0.62 -1.65,-1.47 -2.31,-1.97 -0.93,-0.69 -1.52,-1.14 -2.58,-1.7 -0.35,0.52 -1.21,0.32 -1.89,0.42 -1.33,0.2 -4.15,0.12 -5.49,-0.36l-5.85 -1.62c-0.55,-0.23 -0.27,-0.08 -0.53,-0.55 -0.86,0.48 -1.15,-0.14 -1.77,0 -1.57,0.39 -2.1,0.06 -3.7,0.75l-1.77 0.36c-1.24,0.46 -2.34,0.28 -3.66,0.63 -0.73,0.18 -0.7,0.36 -1.27,0.57 -0.25,0.08 -0.4,0.09 -0.73,0.19l-0.29 0.11c-0.02,0.01 -0.07,0.02 -0.09,0.03l-5.98 1.88c-0.33,0.14 -0.23,0.12 -0.6,0.18 -1.32,0.19 -1.64,0.56 -2.68,1.28 -0.59,0.4 -1.18,0.72 -1.67,1.22 -0.45,0.47 -1.65,1.2 -2.16,1.52l-1.74 1.61c-0.44,0.39 -0.34,0.43 -0.93,0.74l-3.34 2.02c-0.29,0.15 -0.04,0.02 -0.31,0.14l-3.18 2.02c-0.79,0.49 -0.66,0.26 -1.07,1.06 -0.82,0.04 -0.97,0.04 -1.59,0.22 0.38,0.26 0.38,0.41 0.59,0.85 -0.68,0.34 -0.55,-0.25 -2.01,1.57 -0.24,0.31 -0.6,0.67 -0.9,0.93 -0.52,0.45 -0.49,0.41 -0.94,0.89 -0.37,0.39 -1.03,0.56 -1.34,0.96 -0.51,0.65 -1.42,0.62 -2.11,1.13 -0.76,0.55 0,0.29 0.19,0.77 -0.74,0 -0.94,0.08 -1.57,0.28 -0.04,0.01 -0.08,0.02 -0.12,0.03 -0.55,0.16 -0.69,0.25 -1.01,0.66 -0.5,0.65 -0.16,0.93 -0.83,1.3 -0.05,0.03 -0.38,0.19 -0.41,0.2 -0.19,0.14 -0.04,0.04 -0.24,0.22 -0.43,0.41 -1.57,0.84 -2.06,1.45 -0.39,0.47 0.09,0.31 -0.64,0.75 -0.64,0.39 -0.5,0.38 -0.84,0.96l-0.37 0.56c-0.02,0.03 -0.04,0.06 -0.06,0.09l-0.64 0.59c-1.5,0.97 -0.54,1.45 -3.26,1.54z"/>
   <path class="fil13" d="M8500.78 8353.78l-0.45 0.34 -0.44 -0.3 -0.03 0.11c0.06,0.3 0.56,0.61 0.95,0.92 0.41,0.32 0.76,0.61 1.2,0.93 1.62,1.22 6.19,4.36 7.96,4.89 0.47,0.02 1.07,0.13 1.64,0.21 0.47,0.06 1.07,0.06 1.7,0.13 1.85,0.18 0.45,0.29 3.38,0.29 2.21,0 13.6,0.43 14.88,-0.29 1.19,-0.68 -0.83,-0.07 2.33,-0.86l2.56 -0.65c0.45,-0.2 0.19,-0.06 0.41,-0.25 -0.9,0 -1.34,0.3 -2.11,0.3 1.34,-0.53 5.03,-1.32 7.84,-2.44 2.68,-1.09 6.31,-2.77 8.75,-4.24l4.01 -2.42c0.15,-0.11 0.15,-0.11 0.36,-0.25l3.65 -2.31c1.07,-0.86 1.93,-1.54 2.92,-2.48 -0.22,-0.99 -0.75,-0.98 -1.52,-1.35 -0.41,-0.19 -1.11,-0.95 -1.35,-1.27l-3.25 2.82c-0.03,0.03 -0.05,0.06 -0.07,0.08 -0.93,1.09 -1.31,1.56 -2.43,1.81 -0.73,0.16 -2.69,1.5 -3.4,1.98 -0.64,0.42 -1.14,0.55 -1.8,0.95 -4.74,2.83 -11.05,5.14 -16.5,6.24 -0.3,0.06 -0.29,0.04 -0.5,0.12 -0.47,0.17 -0.16,0.02 -0.44,0.22 1.06,0 1.71,-0.37 2.58,-0.45l-2.79 0.79c-1.42,0.39 -4.19,0.23 -5.74,0.23 -0.95,0 -1.28,0.16 -2.27,0.16l-6.71 -0.32c-2.06,-0.17 -8.21,-1.15 -10.21,-1.69 -0.57,-0.15 -1.09,-0.38 -1.66,-0.64 -0.66,-0.28 -1.18,-0.32 -1.8,-0.63 -0.76,-0.37 -0.64,-0.63 -1.65,-0.68z"/>
   <path class="fil14" d="M8500.64 8390.43c-0.01,-1.38 -0.11,-2.91 0.07,-4.19l0.68 -3.62c0.2,-0.83 0.88,-3.19 1.31,-4.05 0.35,-0.73 -0.23,-1.52 -0.8,-1.9 -0.88,-0.43 -1.78,-2.19 -2.59,-2.92 -0.24,-0.21 -0.16,-0.18 -0.33,-0.16 0.13,0.5 1.73,1.72 2.29,1.91l4.17 -10.57c-0.78,0 -0.67,0.11 -1.34,0.06 -2.09,-0.19 -4.44,1.83 -5.64,3.39l-2.73 3.38c-1.57,2.1 -2.43,3.37 -3.52,5.79 -0.2,0.42 -0.29,0.65 -0.43,1.1 -1.35,4.39 0.28,8.13 3.96,10.44 1.43,0.89 2.62,1.34 4.9,1.34z"/>
   <path class="fil15" d="M8454.39 8340.26c0.71,-0.08 1.2,-0.18 2.13,-0.21 0.03,-0.05 0.13,-0.16 0.15,-0.19 0.54,-0.8 0.16,-0.56 0.79,-0.9l4.88 -1.63c-0.3,0.01 -0.16,-0.03 -0.44,-0.36 -0.22,-0.24 -0.29,-0.35 -0.5,-0.58 -0.38,-0.45 -0.72,-0.8 -1.03,-1.24 0.44,0.17 0.51,0.35 0.89,0.61l0.33 -0.28c0.45,-0.26 1.11,-0.3 1.81,-0.3 1.81,-0.01 4.94,-1.08 6.9,-1.37 2.54,-0.39 4.68,-1.09 6.85,-1.4 0.88,-0.12 1.68,-0.4 2.44,-0.47 -0.09,-1.03 -0.9,-1.92 -1.59,-2.54l-0.16 -0.14c0,-0.01 -0.21,-0.23 -0.22,-0.24 -1.01,-1.22 -2.4,-1.91 -4.31,-2.1 -3.57,-0.35 -7.41,-0.05 -10.63,0.49 -3.42,0.56 -5.59,1.58 -7.36,3.94 -2.16,2.89 -1.96,5.62 -0.93,8.91z"/>
   <path class="fil14" d="M8558.22 8387.05c0.35,2.32 -2.92,2.58 -3.97,0.81 -1.31,-2.22 1.23,-3.7 1.99,-4.69l0.66 0.69c-0.64,0.72 -2.45,1.87 -2.04,3.22 0.18,0.65 0.79,1.15 1.66,1.04 1.03,-0.14 0.72,-0.9 1.7,-1.07zm7.7 4.3c-0.27,-0.48 -0.64,-0.75 -1.04,-1.16 -0.2,-0.2 -0.31,-0.34 -0.54,-0.53 -0.91,-0.73 -1.25,-1.17 -1.94,-2.17 -0.16,-0.24 -0.21,-0.27 -0.4,-0.52l-0.47 -0.89c-0.33,-0.62 -0.35,-0.52 -0.61,-0.62 -0.67,-0.24 -2.06,-1.64 -2.68,-2.54l0.62 -0.6 0.78 0.63c-0.1,-0.44 -0.22,-0.8 -0.32,-1.23 -0.69,0.28 -1.58,1.31 -2.15,1.77l-0.5 -0.47 1.88 -2.21 -3.7 -7.76c-0.48,-1.11 -2.03,-3.93 -2.1,-4.61 -0.53,0.34 -0.8,0.99 -1.27,1.49 -0.65,0.68 -0.74,0.62 -1.1,1.65 -1.08,3.14 0.38,10.97 1.66,14.36 1.14,3.07 2.25,4.66 5.07,6.07 1.42,0.71 2.61,1.04 4.53,0.76 1.6,-0.24 3.22,-0.67 4.28,-1.42z"/>
   <path class="fil16" d="M8601.86 8341.31c-0.8,-0.77 -1.21,-0.69 -0.66,-1.66 0.76,0.17 2.22,1.93 2.81,2.55l-0.57 0.55c-0.53,-0.25 -1.12,-0.98 -1.58,-1.44zm-4.33 4.68c-0.05,-0.11 -1.98,-1.91 -0.44,-3.6 1.89,-2.09 1.92,-2.14 2.44,-1.29l-0.65 0.8c-0.24,0.26 -0.42,0.44 -0.68,0.68 -0.49,0.44 -1,0.81 -0.71,1.85 0.18,0.64 0.83,1.08 1.66,0.97 0.73,-0.08 1.15,-0.69 1.54,-1.07 0.77,1.03 -0.45,1.44 -1,1.97 2.47,0 4.06,-0.41 6.04,-1.84 2.13,-1.52 2.66,-4.12 3.06,-4.85 -0.57,-0.23 -0.67,0 -2.07,-0.39 -0.42,-0.12 -1.44,-0.31 -1.81,-0.36 0.37,0.24 0.96,0.91 1.18,1.36l-0.67 0.57c-0.51,-0.24 -0.82,-0.64 -1.24,-1.03 -0.37,-0.33 -0.84,-0.91 -1.18,-1.16l-0.71 -0.16c-0.08,0.56 -0.74,0.86 -1.18,1.25 -0.46,0.41 -0.83,0.83 -1.36,1.13l-0.57 -0.51 1.14 -1.34c-0.86,-0.52 -3.81,-0.42 -4.43,-0.71 -0.55,-0.26 -0.13,-0.24 -0.94,-0.43l-5.6 -1.12c-1.48,-0.41 -5.31,-1.45 -6.38,-1.54 0.02,0.72 0.51,2.67 1.12,3.44 2,2.55 5.71,4.37 8.7,5.66 1.55,0.66 2.95,1.36 4.74,1.72z"/>
   <path class="fil17" d="M8576.56 8284.37c0.39,0.39 2.71,1.61 3.37,1.75 3.3,0.73 9,-1.98 11.95,-3.46 3.75,-1.87 6.65,-4.16 7.25,-8.48 0.16,-1.22 -0.22,-3.61 -0.89,-4.4 -0.43,0.28 -0.91,0.75 -1.36,1.09 -0.57,0.43 -0.81,0.46 -1.33,1.11 -0.48,0.58 -1.9,1.64 -2.6,2.13l-3.9 2.21c-0.45,0.29 -0.91,0.89 -2.47,1.03l0.02 0.13c0.01,0.02 0.02,0.11 0.02,0.13 0.13,0.48 0.26,0.4 0.48,0.71 -0.37,0.21 -0.32,0.25 -0.64,0.44 -0.27,0.15 -0.47,0.19 -0.74,0.33l-2.41 1.72c-0.23,0.17 -0.38,0.3 -0.63,0.44l-3.54 2.11c-0.35,0.24 -0.05,0.03 -0.26,0.21 -0.28,0.24 -0.15,0.29 -0.58,0.48 -0.28,0.11 -1.38,0.23 -1.74,0.32z"/>
   <path class="fil18" d="M8552.75 8368.44c0.07,0.68 1.62,3.5 2.1,4.61l3.7 7.76 -1.88 2.21 0.5 0.47c0.57,-0.46 1.46,-1.49 2.15,-1.77 0.1,0.43 0.22,0.79 0.32,1.23l-0.78 -0.63 -0.62 0.6c0.62,0.9 2.01,2.3 2.68,2.54 0.26,0.1 0.28,0 0.61,0.62l0.47 0.89c0.19,0.25 0.24,0.28 0.4,0.52 0.69,1 1.03,1.44 1.94,2.17 0.23,0.19 0.34,0.33 0.54,0.53 0.4,0.41 0.77,0.68 1.04,1.16 0.78,-0.51 1.4,-1.02 1.98,-1.79 0.32,-0.42 0.48,-0.66 0.72,-1.11 0.22,-0.43 0.4,-0.95 0.61,-1.36 -0.66,-0.17 -0.48,-0.25 -0.85,-0.7 -0.52,-0.59 -0.32,-0.18 -0.98,-0.53 -0.87,-0.45 -0.64,-1.05 -1.12,-1.8l-1.26 -1.81c-0.46,-0.86 -0.77,-1 -1.01,-2 -0.71,-0.27 -1.39,-1 -1.49,-1.99 -0.02,-0.03 -0.05,-0.08 -0.07,-0.11l-0.19 -0.33c-1.19,-2.25 -4.73,-8.8 -4.86,-10.3 -0.66,-0.58 -2.99,-0.4 -4.17,0.5l-0.48 0.42z"/>
   <path class="fil19" d="M8529.03 8391.96l0.1 -9.01c0.4,-0.2 0.27,-0.03 0.46,0 0.01,-0.6 0.12,-2.01 0.2,-2.74 0.08,-0.84 0.38,-1.55 0.52,-2.38 0.23,-1.4 -0.24,-0.96 0.41,-2.51 0.34,-0.8 0.55,-1.57 0.56,-2.45l-0.61 -0.38c-0.36,-0.09 -0.69,-0.1 -1.09,-0.12 -2.04,-0.11 -2.91,0.56 -4.18,2.48 -2.24,3.4 -4.65,10.36 -2.6,14.37 1.3,2.54 4.84,3.53 6.23,2.74z"/>
   <path class="fil20" d="M8583.43 8332.06l4.71 1.26c3.77,0.89 5.64,1.53 9.93,1.98 1.83,0.18 4.56,1.02 4.91,1.03l0.41 -0.3c0.39,-0.26 0.02,-0.14 0.49,-0.25 0.72,0.95 0.22,0.96 0.22,0.96 0.79,0.02 0.9,0.15 1.63,0.19 -1.27,-1.87 -0.33,-4 1.99,-4.06 -1.63,-3.12 -8.47,-4.26 -11.92,-4.28 -2.8,-0.02 -3.62,-0.48 -7.41,0.36 -1.81,0.39 -4.55,1.52 -4.96,3.11z"/>
   <path class="fil21" d="M8530.54 8263.06c0.05,-0.61 0.13,-0.42 0.2,-0.99l0.01 -8c0,1.69 0.17,1.33 -0.3,1.66 0.31,-1.32 0.1,-4.85 0,-6.71l-0.27 -7.08c-0.16,-1.25 -0.26,-3.52 -0.64,-4.38 -1.87,0.15 -4.05,2.4 -4.8,4.54 -1.45,4.17 0.65,13.72 2.66,17.14 0.26,0.45 0.52,0.98 0.83,1.45 0.94,1.35 1.21,1.44 2.31,2.37z"/>
   <path class="fil15" d="M8471.64 8362.48c0.94,-1.44 0.22,0.24 3.13,-1.92 0.89,-0.66 1.61,-1.26 2.78,-1.34l-0.56 -0.25c0.26,-0.02 0.17,0 0.39,-0.08l0.32 -0.13c0.03,-0.02 0.07,-0.03 0.1,-0.05l4.2 -2.82c1.04,-0.76 0.27,0.09 1.67,-1.09 0.34,-0.28 0.98,-0.56 1.8,-1.24l1.86 -1.65c0.27,-0.18 0.56,-0.29 0.81,-0.42 -1.27,-2.39 -2.74,-2.8 -6,-2.18 -3.81,0.71 -8.95,3.39 -11.02,6.54 -0.74,1.12 -0.95,2.18 -0.85,3.57 0.08,1.05 0.75,2.59 1.37,3.06z"/>
   <path class="fil22" d="M8535.52 8262.91c0.65,-0.19 2.04,-1.1 2.66,-1.87 0.27,-0.33 0.65,-1.01 0.87,-1.43 0.3,-0.59 0.45,-0.94 0.64,-1.64 0.75,-2.65 1.11,-4.79 1.53,-7.79 0.62,-4.52 0.17,-7.83 -2.72,-10.75 -0.64,-0.64 -1.89,-1.61 -2.99,-1.72 0,1.26 0.13,1.97 0.02,2.93 -0.06,0.55 0,1.11 -0.01,1.67 -0.02,0.72 -0.13,0.79 -0.16,1.51 -0.04,1.18 0.16,1.91 0.15,3.06 -0.01,3.11 0.24,7.21 0.17,9.78 -0.02,0.64 -0.17,0.85 -0.1,1.44 0.24,1.98 -0.06,2.99 -0.06,4.81z"/>
   <path class="fil14" d="M8459.2 8301.09c0.03,0.65 0.24,0.84 0.26,1.69 3.07,0 3.35,0.86 7.26,0.95l0.64 0.29c0.01,0.02 0.26,0.32 0.27,0.33l0.35 0.26c-0.76,0.03 -0.56,-0.12 -0.85,0.3 0.69,0.38 1.4,0.17 2.23,0.44 0.58,0.17 1.47,0.48 1.98,0.74 0.08,0.25 -0.16,0.19 -0.16,0.27 1.88,0.1 1.41,0.61 3.21,0.68l-0.05 0.1c-0.03,0.09 -0.27,-0.19 0.07,0.37 0.66,1.11 0.56,0.31 0.22,0.5 -0.31,0.17 -0.06,0.05 -0.08,0 0.67,0.03 0.71,0.05 1.22,0.2 0.11,0.37 0.34,-0.1 -0.06,0.22 -0.29,0.22 -0.29,0.03 -0.29,0.03 0.72,0.04 1.38,0.1 1.87,0.36 0.53,-0.58 1.01,-2.14 0.84,-3.21 -0.19,-1.31 -0.9,-1.91 -1.64,-2.65 -2.89,-2.9 -12.45,-8.02 -16.5,-3.3 -0.41,0.49 -0.81,0.72 -0.79,1.43z"/>
   <path class="fil23" d="M8455.46 8342.1c0.54,1.53 3.82,3.02 5.94,2.97 0.37,-0.01 1.73,-0.2 2.04,-0.25 3.54,-0.69 8.45,-2.96 11.23,-4.82 1.93,-1.28 3.44,-2.57 4.61,-4.58l-11.23 2.7c-2.39,0.92 -2.67,-0.15 -3.71,0.81 -0.53,-0.61 -1.53,-1.07 -1.57,-1.43 0,-0.02 -0.01,-0.04 0,-0.06 0.36,0.17 1.12,1.23 1.24,1.69 -0.37,0.16 -1,0.36 -1.41,0.42 -0.54,0.09 -1.07,-0.01 -1.45,0.18l0.76 0.25c0.01,-0.03 0.08,0.02 0.11,0.05 -1.54,0.15 -1.07,0.73 -3.51,0.82 -0.19,0.72 -0.18,0.22 -1.08,0.86l-0.74 0.35c-0.3,0.04 -0.9,0.03 -1.23,0.04z"/>
   <path class="fil24" d="M8467.67 8273.42c3.53,0.29 8.6,2.65 11.25,4.66 0.72,0.55 1.21,0.7 1.63,1.37 0.56,0.89 3.36,2.47 3.82,4.03l0.1 -0.57 1.68 1.99c0.39,0.4 0.38,0.05 0.46,0.77 0.73,-0.02 1.7,-0.25 2.25,-0.5 0.54,-0.26 1.23,-0.75 1.57,-1.13 -0.94,-0.24 -1.11,-1.01 -1.69,-1.57 -0.01,-0.02 -0.05,-0.06 -0.08,-0.08l-3.33 -3.23c-0.67,-0.69 -3.03,-2.89 -3.95,-3.35 -0.68,-0.36 -0.94,-0.64 -1.64,-0.83 -0.07,-0.19 0,-0.57 -0.93,-0.61l0.4 -0.4c-0.91,-0.05 -1.01,-0.17 -1.3,-0.46l-2.42 -1.45c-0.52,-0.27 -0.82,-0.5 -1.27,-0.72l-2.75 -1.23c-0.48,-0.27 -2.23,-0.99 -2.89,-1.06l-0.43 0.75c-0.55,1.45 -0.48,1.94 -0.48,3.62z"/>
   <path class="fil16" d="M8585.72 8306.21c0.26,2.41 1.8,3.04 3.76,3.8 3.54,1.41 9.76,1.75 13.2,-0.05 1.59,-0.84 2.89,-2.45 2.89,-4.87 -1.92,0.01 -3.36,0.16 -5.19,0.17 -2.53,0 -4.23,0.57 -4.57,0.59 -1.64,0.09 -3.53,0.03 -5.2,0.04 -2.94,0.02 -3.5,0.29 -4.89,0.32z"/>
   <path class="fil17" d="M8471.03 8266.1c0.68,0.43 1.35,0.85 2.06,1.31 0.39,0.25 0.67,0.44 1.01,0.68l0.74 0.48c0.28,0.17 -0.04,-0.03 0.28,0.17 1.8,1.18 1.96,1.15 4.12,2.76l6.6 5.33c0.98,1.01 0.04,0.25 0.37,0.84 0.81,0.45 0.92,-0.12 1.56,0.89 0.71,1.15 2.73,2.5 3.57,3.69 0.12,-0.14 0.03,0.06 0.15,-0.27l0.48 -2.73c0.03,-1.19 -0.51,-1.94 -0.78,-2.83 -0.81,0 -0.64,0.37 -1.48,0.05 -0.49,-0.2 -0.93,-0.55 -1.16,-0.83 -0.8,-0.95 -0.5,-2.02 0.5,-2.5l-0.31 -0.45c-0.42,0.27 -0.08,-0.05 -0.45,0.46 -0.41,0.58 -0.56,1.3 -0.31,1.99 0.34,0.95 1.09,1.03 1.84,1.65 -6.16,1.22 -8.34,-5.49 -5.19,-8.74 -1.37,-1.51 -3.92,-3.37 -6.05,-3.82 -2.6,-0.56 -6.19,0 -7.55,1.87z"/>
   <path class="fil25" d="M8501.9 8376.67c0.57,0.38 1.15,1.17 0.8,1.9 -0.43,0.86 -1.11,3.22 -1.31,4.05l-0.68 3.62c-0.18,1.28 -0.08,2.81 -0.07,4.19 2.25,0 3.96,-1.22 5.11,-2.4 0.48,-0.51 1.19,-1.6 1.53,-2.28 0.44,-0.87 0.78,-1.62 1.17,-2.5 -0.56,-0.23 -0.3,-0.07 -0.74,-0.49 -0.19,-0.19 -0.32,-0.33 -0.52,-0.54 -0.36,-0.36 -0.63,-0.62 -1,-0.99 -0.46,-0.47 -1.35,-1.57 -1.64,-2.16 0.26,0.36 0.14,0.18 0.59,0.25l2.51 -5.73c1.28,-2.57 0.86,-2.97 1.3,-3.57l0.67 -1.04c0.32,-0.47 0.28,-0.49 0.66,-0.63 -0.17,-0.45 -0.22,-0.74 -0.46,-1.13 -0.21,-0.34 -0.46,-0.71 -0.8,-0.92 -0.56,0.45 -0.64,0.76 -1.08,1.34 -0.56,0.76 -0.51,1.64 -1.72,3.31 -0.92,1.28 -0.16,0.57 -0.88,2.34 -0.23,0.58 -0.42,0.91 -0.65,1.47 -0.36,0.89 -0.71,2.32 -1.12,2.99 -0.76,-0.22 -1.02,-0.8 -1.67,-1.08z"/>
   <path class="fil26" d="M8575.04 8282.12c0.04,0.37 0.31,0.88 0.52,1.19 0.39,0.61 0.46,0.62 1,1.06 0.36,-0.09 1.46,-0.21 1.74,-0.32 0.43,-0.19 0.3,-0.24 0.58,-0.48 0.21,-0.18 -0.09,0.03 0.26,-0.21l3.54 -2.11c0.25,-0.14 0.4,-0.27 0.63,-0.44l2.41 -1.72c0.27,-0.14 0.47,-0.18 0.74,-0.33 0.32,-0.19 0.27,-0.23 0.64,-0.44 -0.22,-0.31 -0.35,-0.23 -0.48,-0.71 0,-0.02 -0.01,-0.11 -0.02,-0.13l-0.02 -0.13c1.56,-0.14 2.02,-0.74 2.47,-1.03l3.9 -2.21c0.7,-0.49 2.12,-1.55 2.6,-2.13 0.52,-0.65 0.76,-0.68 1.33,-1.11 0.45,-0.34 0.93,-0.81 1.36,-1.09 -0.24,-1.04 -1.81,-3.35 -2.75,-3.69l-0.85 1.16c-0.37,0.41 -0.55,0.68 -0.9,1.08 -2.88,3.34 -1.7,1.48 -3.09,2.72 -0.87,0.78 -0.83,1.5 -1.75,2.05l-5.51 3.97c-0.14,0.12 -0.31,0.37 -0.54,0.54 -0.71,0.58 -1.36,0.56 -2.21,1.17l-1.99 1.13c-0.02,-0.02 -0.07,0.05 -0.1,0.08 0,-0.01 -0.14,-0.22 0.14,0 0.18,0.15 0.26,-0.43 0.04,0.13 -0.14,0.34 -0.07,0.18 -0.4,0.32 -0.5,0.21 -0.66,0.1 -1.18,0.49 -0.79,0.58 -0.2,0.32 -1.06,0.66l-1.05 0.53z"/>
   <path class="fil27" d="M8454.39 8340.26c0.28,0.69 0.56,1.29 1.07,1.84 0.33,-0.01 0.93,0 1.23,-0.04l0.74 -0.35c0.9,-0.64 0.89,-0.14 1.08,-0.86 2.44,-0.09 1.97,-0.67 3.51,-0.82 -0.03,-0.03 -0.1,-0.08 -0.11,-0.05l-0.76 -0.25c0.38,-0.19 0.91,-0.09 1.45,-0.18 0.41,-0.06 1.04,-0.26 1.41,-0.42 -0.12,-0.46 -0.88,-1.52 -1.24,-1.69 -0.01,0.02 0,0.04 0,0.06 0.04,0.36 1.04,0.82 1.57,1.43 1.04,-0.96 1.32,0.11 3.71,-0.81l11.23 -2.7c0.51,-0.83 0.87,-2.59 0.31,-3.48 -0.76,0.07 -1.56,0.35 -2.44,0.47 -2.17,0.31 -4.31,1.01 -6.85,1.4 -1.96,0.29 -5.09,1.36 -6.9,1.37 -0.7,0 -1.36,0.04 -1.81,0.3l-0.33 0.28c-0.38,-0.26 -0.45,-0.44 -0.89,-0.61 0.31,0.44 0.65,0.79 1.03,1.24 0.21,0.23 0.28,0.34 0.5,0.58 0.28,0.33 0.14,0.37 0.44,0.36l-4.88 1.63c-0.63,0.34 -0.25,0.1 -0.79,0.9 -0.02,0.03 -0.12,0.14 -0.15,0.19 -0.93,0.03 -1.42,0.13 -2.13,0.21z"/>
   <path class="fil15" d="M8558.2 8267.8c4.47,1.9 10.87,-7.76 11.68,-11.11 0.63,-2.6 -0.28,-4.77 -1.72,-5.86 -0.43,0.46 -0.29,0.5 -0.48,0.91 -0.16,0.34 -0.08,0.2 -0.33,0.43 -0.62,0.56 -1.31,1.66 -1.36,2.5l-0.21 -0.01c-0.01,0 -0.04,0 -0.06,0.01 -0.12,2.16 -0.19,1.51 -0.56,1.4 -0.26,-0.09 0.02,-0.24 -0.2,0.02l-0.85 1.55c-0.02,0.03 -0.05,0.07 -0.07,0.09l-0.44 0.93c-0.02,0.02 -0.04,0.07 -0.06,0.1l-1.61 2.51c-0.01,0.03 -0.03,0.07 -0.05,0.1l-0.11 0.2c-0.01,0.03 -0.04,0.07 -0.05,0.1l-0.34 0.58c-0.01,0.03 -0.04,0.07 -0.06,0.09l-1.98 3.37c-0.39,0.77 -0.5,0.71 -0.86,1.27l-0.28 0.82z"/>
   <path class="fil28" d="M8474.55 8281.37c0.58,-0.55 0.77,-1.25 1.99,-1.42 1.16,-0.16 1.86,0.38 2.33,0.98 -0.21,0.8 -1.12,1.38 -1.58,1.98 0.35,0.16 0.56,0.31 0.89,0.5 0.37,0.21 0.62,0.3 1.05,0.47 0.78,0.3 1.47,0.62 2.2,0.85 1.4,0.45 3.4,0.94 5.18,0.94 -0.08,-0.72 -0.07,-0.37 -0.46,-0.77l-1.68 -1.99 -0.1 0.57c-0.46,-1.56 -3.26,-3.14 -3.82,-4.03 -0.42,-0.67 -0.91,-0.82 -1.63,-1.37 -2.65,-2.01 -7.72,-4.37 -11.25,-4.66 0.02,1.04 0.52,2.09 0.92,2.78 0.54,0.9 0.91,1.28 1.64,2.02 1.09,1.09 2.89,2.53 4.32,3.15z"/>
   <path class="fil15" d="M8506.3 8256.2l3.07 11.14c3.36,-0.79 2.59,-6.97 2.14,-9.18 -0.59,-3 -1.28,-5.29 -3.08,-7.6 -0.41,-0.54 -0.23,-0.53 -0.9,-0.72 -0.31,0.11 -2.44,1.51 -1.69,3.01 0.98,1.99 3.17,-0.29 3.17,-0.29 0.42,2.23 -2.61,2.51 -3.81,1.07 -0.6,-0.71 -0.69,-1.91 -0.2,-2.71 0.45,-0.69 1.37,-0.99 1.54,-1.75 -0.55,-0.76 -2.64,-0.61 -3.44,-0.61 0.04,2.23 -0.05,1 0.35,2.75 0.27,0.07 -0.37,-0.35 0.27,-0.15l0.22 2.21c1.53,0.8 1.33,1.11 2.64,2.38l-0.28 0.45z"/>
   <path class="fil20" d="M8556.04 8266.28l1.38 -1.89c0.13,-0.16 0.02,0 0.2,-0.26l0.96 -1.77c0.07,-0.14 0.09,-0.19 0.15,-0.31 0.74,-1.37 1.24,-1.56 2.49,-4.08l0.17 -0.29c0.33,-0.7 0.11,-1.19 0.57,-1.58 0.56,-0.49 -0.18,-0.01 0.63,0.02l0.26 -1.76c0.47,0.11 0.24,0.13 0.68,0.27 -0.13,-0.36 -1.08,-1.42 -1.17,-1.4 0.03,-0.04 0.05,-0.15 0.07,-0.14 0.04,0.08 0.09,-0.67 0.75,-1.74 0.2,-0.34 0.27,-0.61 0.43,-0.98 0.15,-0.39 0.02,-0.01 0.17,-0.42 0.1,-0.27 0.11,-0.41 0.2,-0.63 -5.42,0 -8.2,6.92 -8.97,11.43 -0.26,1.5 -0.51,3.79 0.61,5.09 0.19,0.21 0.22,0.25 0.42,0.44z"/>
   <path class="fil24" d="M8529.54 8237.56c0.38,0.86 0.48,3.13 0.64,4.38l0.27 7.08c0.1,1.86 0.31,5.39 0,6.71 0.47,-0.33 0.3,0.03 0.3,-1.66l-0.01 8c-0.07,0.57 -0.15,0.38 -0.2,0.99 1.19,0.53 1.04,0.62 2.76,0.62 -0.27,-1.2 0.23,-8.19 0,-10.36 -0.22,-2.15 0.03,-2.55 -0.02,-3.19 -0.16,-2.04 -0.16,-4.59 -0.38,-6.63l-0.34 -6.39c-0.77,0 -2.38,0.03 -3.02,0.45z"/>
   <path class="fil20" d="M8586.18 8303.56c3.25,0 6.54,0.01 9.78,-0.05l4.42 -0.45c1.64,-0.08 3.21,-0.28 4.74,-0.31 -0.84,-1.44 -1.54,-2.72 -3.49,-3.51 -3.52,-1.45 -8.06,-0.53 -11.59,0.97 -1.28,0.55 -3.83,1.74 -3.86,3.35z"/>
   <path class="fil29" d="M8533.3 8263.68c0.88,0 1.79,-0.29 2.22,-0.77 0,-1.82 0.3,-2.83 0.06,-4.81 -0.07,-0.59 0.08,-0.8 0.1,-1.44 0.07,-2.57 -0.18,-6.67 -0.17,-9.78 0.01,-1.15 -0.19,-1.88 -0.15,-3.06 0.03,-0.72 0.14,-0.79 0.16,-1.51 0.01,-0.56 -0.05,-1.12 0.01,-1.67 0.11,-0.96 -0.02,-1.67 -0.02,-2.93 -0.26,-0.15 -0.18,-0.12 -0.55,-0.25 -0.2,-0.06 -0.64,-0.15 -0.75,-0.17 -0.59,-0.09 -1.09,-0.18 -1.65,-0.18l0.34 6.39c0.22,2.04 0.22,4.59 0.38,6.63 0.05,0.64 -0.2,1.04 0.02,3.19 0.23,2.17 -0.27,9.16 0,10.36z"/>
   <path class="fil26" d="M8468.58 8269.05c0.66,0.07 2.41,0.79 2.89,1.06l2.75 1.23c0.45,0.22 0.75,0.45 1.27,0.72l2.42 1.45c0.29,0.29 0.39,0.41 1.3,0.46l-0.4 0.4c0.93,0.04 0.86,0.42 0.93,0.61 0.7,0.19 0.96,0.47 1.64,0.83 0.92,0.46 3.28,2.66 3.95,3.35l3.33 3.23c0.03,0.02 0.07,0.06 0.08,0.08 0.58,0.56 0.75,1.33 1.69,1.57 0.47,-0.69 0.74,-0.87 0.91,-1.79 -0.84,-1.19 -2.86,-2.54 -3.57,-3.69 -0.64,-1.01 -0.75,-0.44 -1.56,-0.89 -0.33,-0.59 0.61,0.17 -0.37,-0.84l-6.6 -5.33c-2.16,-1.61 -2.32,-1.58 -4.12,-2.76 -0.32,-0.2 0,0 -0.28,-0.17l-0.74 -0.48c-0.34,-0.24 -0.62,-0.43 -1.01,-0.68 -0.71,-0.46 -1.38,-0.88 -2.06,-1.31 -0.9,0.54 -0.7,0.55 -1.34,1.28 -0.43,0.49 -0.96,0.97 -1.11,1.67z"/>
   <path class="fil30" d="M8582.97 8335.17c1.07,0.09 4.9,1.13 6.38,1.54l5.6 1.12c0.81,0.19 0.39,0.17 0.94,0.43 0.62,0.29 3.57,0.19 4.43,0.71l-1.14 1.34 0.57 0.51c0.53,-0.3 0.9,-0.72 1.36,-1.13 0.44,-0.39 1.1,-0.69 1.18,-1.25l0.71 0.16c-0.06,-0.55 -0.17,-0.53 -0.17,-1.16 0,-0.62 0.11,-0.62 0.15,-1.11 -0.35,-0.01 -3.08,-0.85 -4.91,-1.03 -4.29,-0.45 -6.16,-1.09 -9.93,-1.98l-4.71 -1.26c-0.27,0.36 -0.44,0.8 -0.55,1.32 -0.06,0.28 -0.08,0.55 -0.07,0.85l0.16 0.94z"/>
   <path class="fil31" d="M8556.04 8266.28c0.63,0.69 1.16,1.26 2.16,1.52l0.28 -0.82c0.36,-0.56 0.47,-0.5 0.86,-1.27l1.98 -3.37c0.02,-0.02 0.05,-0.06 0.06,-0.09l0.34 -0.58c0.01,-0.03 0.04,-0.07 0.05,-0.1l0.11 -0.2c0.02,-0.03 0.04,-0.07 0.05,-0.1l1.61 -2.51c0.02,-0.03 0.04,-0.08 0.06,-0.1l0.44 -0.93c0.02,-0.02 0.05,-0.06 0.07,-0.09l0.85 -1.55c0.22,-0.26 -0.06,-0.11 0.2,-0.02 0.37,0.11 0.44,0.76 0.56,-1.4 0.02,-0.01 0.05,-0.01 0.06,-0.01l0.21 0.01c0.05,-0.84 0.74,-1.94 1.36,-2.5 0.25,-0.23 0.17,-0.09 0.33,-0.43 0.19,-0.41 0.05,-0.45 0.48,-0.91 -0.69,-0.93 -2.5,-1.51 -4.18,-1.51 -0.09,0.22 -0.1,0.36 -0.2,0.63 -0.15,0.41 -0.02,0.03 -0.17,0.42 -0.16,0.37 -0.23,0.64 -0.43,0.98 -0.66,1.07 -0.71,1.82 -0.75,1.74 -0.02,-0.01 -0.04,0.1 -0.07,0.14 0.09,-0.02 1.04,1.04 1.17,1.4 -0.44,-0.14 -0.21,-0.16 -0.68,-0.27l-0.26 1.76c-0.81,-0.03 -0.07,-0.51 -0.63,-0.02 -0.46,0.39 -0.24,0.88 -0.57,1.58l-0.17 0.29c-1.25,2.52 -1.75,2.71 -2.49,4.08 -0.06,0.12 -0.08,0.17 -0.15,0.31l-0.96 1.77c-0.18,0.26 -0.07,0.1 -0.2,0.26l-1.38 1.89z"/>
   <path class="fil32" d="M8585.75 8272.11c-0.27,1.95 -2.38,4.76 -4.31,4.36 0.13,0.31 0.06,0.17 0.01,0.32l-1.62 0.18 -0.62 0.52c-1.24,0.82 -0.94,1.1 -1.88,1.35 -0.02,0.06 0.19,0.52 -0.52,0.79 -0.49,0.19 -1.39,0.15 -1.93,0.17 0,0.89 -0.08,1.63 0.16,2.32l1.05 -0.53c0.86,-0.34 0.27,-0.08 1.06,-0.66 0.52,-0.39 0.68,-0.28 1.18,-0.49 0.33,-0.14 0.26,0.02 0.4,-0.32 0.22,-0.56 0.14,0.02 -0.04,-0.13 -0.28,-0.22 -0.14,-0.01 -0.14,0 0.03,-0.03 0.08,-0.1 0.1,-0.08l1.99 -1.13c0.85,-0.61 1.5,-0.59 2.21,-1.17 0.23,-0.17 0.4,-0.42 0.54,-0.54l5.51 -3.97c0.92,-0.55 0.88,-1.27 1.75,-2.05 1.39,-1.24 0.21,0.62 3.09,-2.72 0.35,-0.4 0.53,-0.67 0.9,-1.08l0.85 -1.16c-0.41,-0.54 -1.85,-1.26 -2.74,-1.35 -0.03,0.02 -0.09,0.01 -0.1,0.05l-0.47 0.61c-0.06,0.08 -0.14,0.23 -0.17,0.28l-0.29 0.33c-0.04,0.03 -0.13,0.11 -0.16,0.14 -0.59,0.62 0.06,0.14 -0.84,1 -0.17,0.17 -0.27,0.33 -0.4,0.51 -0.62,0.87 -0.93,1.14 -1.72,1.8 -0.35,0.29 -0.58,0.63 -0.93,0.9 -1.86,1.41 -0.5,0.15 -1.92,1.75z"/>
   <path class="fil33" d="M8459.43 8306.73c1.64,-0.03 3.25,-0.05 4.88,-0.03 0.88,0.01 1.56,0.05 2.29,0.19l5.36 1.98c1.06,0.53 2.04,0.9 2.96,1.63 0.02,0.02 0.06,0.04 0.08,0.06l0.19 0.15c0.71,-0.18 0.77,-0.19 1.23,-0.72 0.25,-0.29 0.72,-0.87 0.87,-1.17 -0.49,-0.26 -1.15,-0.32 -1.87,-0.36 0,0 0,0.19 0.29,-0.03 0.4,-0.32 0.17,0.15 0.06,-0.22 -0.51,-0.15 -0.55,-0.17 -1.22,-0.2 0.02,0.05 -0.23,0.17 0.08,0 0.34,-0.19 0.44,0.61 -0.22,-0.5 -0.34,-0.56 -0.1,-0.28 -0.07,-0.37l0.05 -0.1c-1.8,-0.07 -1.33,-0.58 -3.21,-0.68 0,-0.08 0.24,-0.02 0.16,-0.27 -0.51,-0.26 -1.4,-0.57 -1.98,-0.74 -0.83,-0.27 -1.54,-0.06 -2.23,-0.44 0.29,-0.42 0.09,-0.27 0.85,-0.3l-0.35 -0.26c-0.01,-0.01 -0.26,-0.31 -0.27,-0.33l-0.64 -0.29c-3.91,-0.09 -4.19,-0.95 -7.26,-0.95 -0.02,-0.85 -0.23,-1.04 -0.26,-1.69 -0.66,0.52 -0.79,1.92 -0.66,2.87 0.14,0.97 0.47,2.01 0.89,2.77z"/>
   <path class="fil27" d="M8471.64 8362.48c0.65,0.94 2.34,2.01 3.79,2.14l1.19 -1.74 8.2 -6.01c0.11,-0.06 0.1,-0.04 0.21,-0.1l1.79 -1.12c0.03,-0.02 0.44,-0.24 0.49,-0.27l0.96 -0.56c0.19,-0.1 -0.25,-0.06 0.47,-0.17 0,-1.01 0.15,-0.53 -0.07,-1.54l-0.42 -1.43c-0.02,-0.02 -0.05,-0.07 -0.06,-0.1 0,-0.02 -0.03,-0.06 -0.05,-0.09 -0.25,0.13 -0.54,0.24 -0.81,0.42l-1.86 1.65c-0.82,0.68 -1.46,0.96 -1.8,1.24 -1.4,1.18 -0.63,0.33 -1.67,1.09l-4.2 2.82c-0.03,0.02 -0.07,0.03 -0.1,0.05l-0.32 0.13c-0.22,0.08 -0.13,0.06 -0.39,0.08l0.56 0.25c-1.17,0.08 -1.89,0.68 -2.78,1.34 -2.91,2.16 -2.19,0.48 -3.13,1.92z"/>
   <path class="fil34" d="M8586.18 8369.66l-1.83 -1.84c-0.03,-0.02 -0.05,-0.05 -0.07,-0.08 -0.03,-0.02 -0.06,-0.04 -0.08,-0.06 -0.15,-0.14 -0.13,-0.15 -0.28,-0.25 -0.88,0.69 -1.7,1.33 -2.92,0.55 -1.27,-0.82 -1.32,-1.54 -0.63,-2.96l-0.25 0.03c-0.56,0.6 -0.66,1.45 -0.23,2.19 0.38,0.66 1.02,0.82 1.7,1.32 -5.68,0.96 -8.43,-4.84 -5.24,-8.84 -0.19,-0.25 -0.23,-0.26 -0.48,-0.5 -0.44,-0.42 0.43,0.44 -0.16,-0.15 -0.36,-0.35 -1.37,-1.57 -1.96,-1.86 -1.58,-0.76 -0.75,-0.99 -1.77,-1.29 -0.14,0.15 -0.01,-0.04 -0.2,0.26 -1.24,1.96 -0.27,3.91 0.56,5.94 1.22,2.95 4.65,7.03 7.68,8.51 2.15,1.06 5.17,0.5 6.16,-0.97z"/>
   <path class="fil27" d="M8586.18 8303.56c-0.28,0.3 -0.39,0.64 -0.44,1.06 -0.06,0.45 -0.02,1.12 -0.02,1.59 1.39,-0.03 1.95,-0.3 4.89,-0.32 1.67,-0.01 3.56,0.05 5.2,-0.04 0.34,-0.02 2.04,-0.59 4.57,-0.59 1.83,-0.01 3.27,-0.16 5.19,-0.17 0,-1 -0.16,-1.65 -0.45,-2.34 -1.53,0.03 -3.1,0.23 -4.74,0.31l-4.42 0.45c-3.24,0.06 -6.53,0.05 -9.78,0.05z"/>
   <path class="fil21" d="M8508.45 8383.25c0.71,-1.67 1.54,-5.05 1.93,-6.94 0.48,-2.43 0.57,-5.61 -0.1,-7.96 -0.38,0.14 -0.34,0.16 -0.66,0.63l-0.67 1.04c-0.44,0.6 -0.02,1 -1.3,3.57l-2.51 5.73c-0.45,-0.07 -0.33,0.11 -0.59,-0.25 0.29,0.59 1.18,1.69 1.64,2.16 0.37,0.37 0.64,0.63 1,0.99 0.2,0.21 0.33,0.35 0.52,0.54 0.44,0.42 0.18,0.26 0.74,0.49z"/>
   <path class="fil20" d="M8530.95 8391.19c0.98,-0.32 2.2,-1.88 2.7,-2.75 0.52,-0.92 1.11,-3.1 1.21,-4.43 0.28,-3.83 -0.02,-6.75 -1.36,-9.48 -0.09,0.12 -0.09,0.1 -0.18,0.3 -0.34,0.7 -1.05,3.9 -1.2,4.3 -0.18,0.45 -0.21,0.31 -0.28,0.93 -0.1,0.76 -0.2,1.3 -0.39,2.06 -0.56,2.17 -0.55,6.45 -0.5,9.07z"/>
   <path class="fil21" d="M8475.19 8310.71l-0.19 -0.15c-0.02,-0.02 -0.06,-0.04 -0.08,-0.06 -0.92,-0.73 -1.9,-1.1 -2.96,-1.63l-5.36 -1.98c-0.73,-0.14 -1.41,-0.18 -2.29,-0.19 -1.63,-0.02 -3.24,0 -4.88,0.03 0.7,1.09 1.47,1.96 2.6,2.6 1.1,0.64 2.31,1.08 3.75,1.45 2.49,0.63 7.14,0.91 9.41,-0.07z"/>
   <path class="fil35" d="M8501.9 8376.67c0.65,0.28 0.91,0.86 1.67,1.08 0.41,-0.67 0.76,-2.1 1.12,-2.99 0.23,-0.56 0.42,-0.89 0.65,-1.47 0.72,-1.77 -0.04,-1.06 0.88,-2.34 1.21,-1.67 1.16,-2.55 1.72,-3.31 0.44,-0.58 0.52,-0.89 1.08,-1.34 -0.17,-0.32 -0.23,-0.3 -0.61,-0.57 -0.26,-0.19 -0.46,-0.31 -0.77,-0.46 -0.74,-0.33 -1.19,-0.34 -2.2,-0.34l-4.17 10.57c-0.56,-0.19 -2.16,-1.41 -2.29,-1.91 0.17,-0.02 0.09,-0.05 0.33,0.16 0.81,0.73 1.71,2.49 2.59,2.92z"/>
   <path class="fil36" d="M8498.22 8257.42c0.59,0.01 2.74,-0.88 3.61,1.26 0.31,0.73 0.25,1.61 -0.12,2.23 -0.18,0.31 -0.45,0.53 -0.63,0.74l-0.64 0.66c-0.01,0.03 -0.05,0.06 -0.09,0.09 0.35,0.29 1.04,1.44 1.38,1.89 0.24,0.32 0.47,0.6 0.74,0.93 0.31,0.4 0.57,0.68 1.03,0.9 0.37,-0.66 0.06,-2.9 -0.06,-3.79l-0.57 -3.44c0.22,0.4 0.19,0.32 0.69,0.37 0.5,-0.91 0.16,-0.61 -1.15,-2.36 -0.78,-1.06 -0.31,-1.5 0.08,-2.39l0.03 -0.63c-0.88,-0.01 -0.46,0.01 -1.02,0.26 -0.04,-0.87 -0.24,-1.42 -0.52,-2.21l-0.45 -0.92c-0.1,-0.31 -0.1,-0.6 -0.27,-0.92 -0.93,0.49 -1.73,1.88 -2.07,3.02 -0.53,1.82 -0.22,2.57 0.03,4.31z"/>
   <path class="fil36" d="M8475.43 8364.62c1.71,0.37 3.58,-0.14 4.77,-0.76 1.86,-0.96 4.45,-2.85 5.73,-4.49 1.41,-1.81 1.89,-2.46 2.81,-4.72 -0.72,0.11 -0.28,0.07 -0.47,0.17l-0.96 0.56c-0.05,0.03 -0.46,0.25 -0.49,0.27l-1.79 1.12c-0.11,0.06 -0.1,0.04 -0.21,0.1l-8.2 6.01 -1.19 1.74z"/>
   <path class="fil23" d="M8574.3 8354.24l0.96 1.15c0.74,0.79 1.4,1.72 2.38,2.64 0.49,0.44 0.13,-0.13 0.47,0.54l0.42 -0.17c1.71,-1.16 4.37,-0.21 5.5,0.74 1.41,1.2 2.02,3.05 1.56,5.54 0.37,0.35 0.42,0.76 0.96,0.97 0.64,0.25 1.17,0.08 1.41,0.65 0.2,-0.23 0.23,0.2 0.21,-1.53 -0.01,-0.66 -0.04,-0.98 -0.18,-1.5 -0.24,-0.85 -0.57,-1.65 -1.05,-2.32 -0.96,-1.35 -2.04,-2.48 -3.33,-3.53 -1.72,-1.4 -5.94,-3.92 -8.04,-3.71 -0.25,0.03 -0.53,0.09 -0.74,0.17l-0.53 0.36z"/>
   <path class="fil37" d="M8529.03 8391.96c0.82,-0.06 1.35,-0.37 1.92,-0.77 -0.05,-2.62 -0.06,-6.9 0.5,-9.07 0.19,-0.76 0.29,-1.3 0.39,-2.06 0.07,-0.62 0.1,-0.48 0.28,-0.93 0.15,-0.4 0.86,-3.6 1.2,-4.3 0.09,-0.2 0.09,-0.18 0.18,-0.3 -0.27,-0.47 -0.34,-0.65 -0.83,-0.99 -0.18,-0.11 -0.42,-0.25 -0.57,-0.35 -0.41,-0.23 -0.27,-0.22 -0.82,-0.32 -0.01,0.88 -0.22,1.65 -0.56,2.45 -0.65,1.55 -0.18,1.11 -0.41,2.51 -0.14,0.83 -0.44,1.54 -0.52,2.38 -0.08,0.73 -0.19,2.14 -0.2,2.74 -0.19,-0.03 -0.06,-0.2 -0.46,0l-0.1 9.01z"/>
   <path class="fil24" d="M8502.49 8254.51c-0.39,0.89 -0.86,1.33 -0.08,2.39 1.31,1.75 1.65,1.45 1.15,2.36 -0.5,-0.05 -0.47,0.03 -0.69,-0.37l0.57 3.44c0.12,0.89 0.43,3.13 0.06,3.79 0.14,0.48 1.08,1.06 1.49,1.32 1.19,0.73 1.57,0.18 2.22,0.51 -0.03,-1.95 -0.12,-2.83 -0.55,-4.37l-0.19 1.01c-0.04,-1.83 -0.28,-2.93 -0.72,-4.36 -0.2,-0.69 -0.3,-1.28 -0.42,-2.05 -0.18,-1.16 0.04,0.11 -0.35,-0.82 -0.16,-0.38 -0.12,-0.73 -0.14,-1.16l-0.38 0.31 -0.23 -1.67 -0.52 -0.32c-0.04,-0.02 -0.07,-0.05 -0.12,-0.07 -0.52,-0.28 -0.72,-0.28 -1.1,0.06z"/>
   <path class="fil38" d="M8578.11 8358.57c-0.7,0.4 -1.17,0.85 -1.76,1.15 -3.19,4 -0.44,9.8 5.24,8.84 -0.68,-0.5 -1.32,-0.66 -1.7,-1.32 -0.43,-0.74 -0.33,-1.59 0.23,-2.19 0.79,-1.35 0.9,-2.42 0.11,-3.88 -0.3,0.26 -0.34,0.41 -0.81,0.7 -0.75,1.36 -0.97,1.59 -0.39,3.27 -0.98,-0.41 -1.75,-0.94 -2.05,-2.01 -0.35,-1.24 0.07,-2.21 0.65,-2.9 0.38,-0.54 0.84,-1.01 1.57,-1.06 -0.17,-0.11 -0.21,-0.11 -0.39,-0.31 -0.32,-0.36 -0.16,-0.12 -0.28,-0.46l-0.42 0.17z"/>
   <path class="fil39" d="M8562.52 8378.26c0.07,-2.09 1.09,-2.82 3.2,-2.68 -0.58,-0.73 -1.02,-1.52 -1.62,-2.32 -0.62,-0.83 -1.14,-1.55 -1.85,-2.27 -1.16,-1.13 -3.05,-3.12 -4.85,-3.47 0.13,1.5 3.67,8.05 4.86,10.3l0.19 0.33c0.02,0.03 0.05,0.08 0.07,0.11z"/>
   <path class="fil23" d="M8584.35 8267.5c0.18,0.53 0.76,1.04 1.07,1.83 0.36,0.89 0.39,1.73 0.33,2.78 1.42,-1.6 0.06,-0.34 1.92,-1.75 0.35,-0.27 0.58,-0.61 0.93,-0.9 0.79,-0.66 1.1,-0.93 1.72,-1.8 0.13,-0.18 0.23,-0.34 0.4,-0.51 0.9,-0.86 0.25,-0.38 0.84,-1 0.03,-0.03 0.12,-0.11 0.16,-0.14l0.29 -0.33c0.03,-0.05 0.11,-0.2 0.17,-0.28l0.47 -0.61c0.01,-0.04 0.07,-0.03 0.1,-0.05 -1.66,-0.99 -5.16,0.4 -6.79,1.47 -0.42,0.28 -1.42,0.93 -1.61,1.29z"/>
   <path class="fil40" d="M8582.52 8269.07c0.35,0.19 0.13,-0.24 0.38,0.43 0.08,0.23 0.08,0.49 0.08,0.74 -0.07,3.43 -3.44,2.53 -2.91,4.64 0.17,0.7 0.94,1.05 1.37,1.59 1.93,0.4 4.04,-2.41 4.31,-4.36 0.06,-1.05 0.03,-1.89 -0.33,-2.78 -0.31,-0.79 -0.89,-1.3 -1.07,-1.83 -0.44,0.17 -0.24,0.06 -0.62,0.29 -0.23,0.14 -0.22,0.16 -0.42,0.35 -0.34,0.33 -0.58,0.54 -0.79,0.93z"/>
   <path class="fil41" d="M8488.74 8272.69c-0.27,-0.41 -0.37,-0.56 -0.71,-0.96 -0.13,-0.14 -0.29,-0.37 -0.34,-0.42 -0.4,-0.46 0.04,-0.19 -0.62,-0.46 0.1,1.04 -0.56,1.25 0.25,2.54 -0.8,-0.38 -1.55,-0.8 -1.95,-1.61 -0.33,-0.69 -0.55,-2.25 0.17,-2.67 -0.24,-0.51 -0.48,-0.66 -0.91,-1.06 -3.15,3.25 -0.97,9.96 5.19,8.74 -0.75,-0.62 -1.5,-0.7 -1.84,-1.65 -0.25,-0.69 -0.1,-1.41 0.31,-1.99 0.37,-0.51 0.03,-0.19 0.45,-0.46z"/>
   <path class="fil20" d="M8564.01 8380.25c0.24,1 0.55,1.14 1.01,2l1.26 1.81c0.48,0.75 0.25,1.35 1.12,1.8 0.66,0.35 0.46,-0.06 0.98,0.53 0.37,0.45 0.19,0.53 0.85,0.7 0.01,-0.76 0.17,-1.44 0.16,-2.47 -0.01,-0.84 -0.19,-1.63 -0.41,-2.34 -0.29,-0.97 -1.1,-3.05 -1.58,-3.68 -0.55,0.62 -0.31,0.9 -1.12,1.4 -0.73,0.45 -1.36,0.41 -2.27,0.25z"/>
   <path class="fil42" d="M8507.21 8267.95c0.9,-0.19 1.54,-0.08 2.16,-0.61l-3.07 -11.14c-0.58,-0.04 -1.23,-1.04 -2.07,-1.36l0.23 1.67 0.38 -0.31c0.02,0.43 -0.02,0.78 0.14,1.16 0.39,0.93 0.17,-0.34 0.35,0.82 0.12,0.77 0.22,1.36 0.42,2.05 0.44,1.43 0.68,2.53 0.72,4.36l0.19 -1.01c0.43,1.54 0.52,2.42 0.55,4.37z"/>
   <path class="fil43" d="M8576.71 8275.88c0.46,0.19 0.69,0.48 1.31,0.73 0.66,0.26 1.11,0.29 1.81,0.36l1.62 -0.18c0.05,-0.15 0.12,-0.01 -0.01,-0.32 -0.43,-0.54 -1.2,-0.89 -1.37,-1.59 -0.53,-2.11 2.84,-1.21 2.91,-4.64 0,-0.25 0,-0.51 -0.08,-0.74 -0.25,-0.67 -0.03,-0.24 -0.38,-0.43 -0.41,0.19 -0.37,0.27 -0.73,0.6 -2.74,2.45 -1.55,1.46 -3.74,3.9 -0.42,0.47 -0.95,1.43 -1.34,1.71l0 0.6z"/>
   <path class="fil40" d="M8578.53 8358.4c0.12,0.34 -0.04,0.1 0.28,0.46 0.18,0.2 0.22,0.2 0.39,0.31 2.62,-0.16 3.56,1.13 3.62,3.6l2.01 1.69c0.43,0.4 0.3,0.5 0.75,0.33l0.01 -0.11c0.46,-2.49 -0.15,-4.34 -1.56,-5.54 -1.13,-0.95 -3.79,-1.9 -5.5,-0.74z"/>
   <path class="fil32" d="M8500.26 8250.09c0.17,0.32 0.17,0.61 0.27,0.92l0.45 0.92c0.28,0.79 0.48,1.34 0.52,2.21 0.56,-0.25 0.14,-0.27 1.02,-0.26l-0.03 0.63c0.38,-0.34 0.58,-0.34 1.1,-0.06 0.05,0.02 0.08,0.05 0.12,0.07l0.52 0.32c0.84,0.32 1.49,1.32 2.07,1.36l0.28 -0.45c-1.31,-1.27 -1.11,-1.58 -2.64,-2.38l-0.22 -2.21c-0.64,-0.2 0,0.22 -0.27,0.15 -0.4,-1.75 -0.31,-0.52 -0.35,-2.75 -0.73,0.17 -0.94,0.23 -1.57,0.56 -0.32,0.15 -0.43,0.2 -0.69,0.38 -0.44,0.28 -0.4,0.18 -0.58,0.59z"/>
   <path class="fil44" d="M8602.98 8336.33c-0.04,0.49 -0.15,0.49 -0.15,1.11 0,0.63 0.11,0.61 0.17,1.16 0.34,0.25 0.81,0.83 1.18,1.16 0.42,0.39 0.73,0.79 1.24,1.03l0.67 -0.57c-0.22,-0.45 -0.81,-1.12 -1.18,-1.36 0.37,0.05 1.39,0.24 1.81,0.36 1.4,0.39 1.5,0.16 2.07,0.39 0.2,-0.99 0.3,-1.1 0.3,-2.39 -1.85,0.64 -1.85,0.59 -3.36,-0.29 -0.73,-0.04 -0.84,-0.17 -1.63,-0.19 0,0 0.5,-0.01 -0.22,-0.96 -0.47,0.11 -0.1,-0.01 -0.49,0.25l-0.41 0.3z"/>
   <path class="fil24" d="M8577.63 8360.23c0.45,0.11 0.74,0.46 1.03,0.76 0.25,0.26 0.58,0.61 0.76,0.88 0.47,-0.29 0.51,-0.44 0.81,-0.7 0.79,1.46 0.68,2.53 -0.11,3.88l0.25 -0.03 1.08 -0.43c1.1,-0.83 0.66,-0.8 1.37,-1.82 -0.06,-2.47 -1,-3.76 -3.62,-3.6 -0.73,0.05 -1.19,0.52 -1.57,1.06z"/>
   <path class="fil45" d="M8521.75 8330.42c-1.17,0.57 -0.38,0.98 -0.98,1.93 -0.32,0.53 -1.26,0.84 -1.98,0.4 -1.44,-0.86 -0.6,-3.3 1.37,-2.61 -0.45,0.78 -1.88,1.43 -1.55,2.32 0.75,0.22 0.98,-0.41 1.51,-0.91 0.55,-0.52 1.08,-0.8 1.37,-1.44 -1.6,-2.57 -5.65,-0.16 -4,2.7 1.26,2.18 5.43,0.98 4.26,-2.39z"/>
   <path class="fil45" d="M8517.96 8334.25c-1.2,0.57 -0.38,0.87 -0.93,1.84 -0.3,0.52 -1.18,0.93 -2.03,0.45 -1.37,-0.76 -0.5,-3.4 1.23,-2.63 0.01,0.04 0.18,0.01 -0.16,0.44 -0.44,0.55 -1.14,0.88 -1.38,1.56l0.35 0.41c0.65,-0.03 2.57,-2.23 2.67,-2.51 -1.78,-2.37 -5.72,0.06 -4,2.78 1.55,2.43 5.57,0.51 4.25,-2.34z"/>
   <path class="fil27" d="M8571.98 8355.92c1.02,0.3 0.19,0.53 1.77,1.29 0.59,0.29 1.6,1.51 1.96,1.86 0.59,0.59 -0.28,-0.27 0.16,0.15 0.25,0.24 0.29,0.25 0.48,0.5 0.59,-0.3 1.06,-0.75 1.76,-1.15 -0.34,-0.67 0.02,-0.1 -0.47,-0.54 -0.98,-0.92 -1.64,-1.85 -2.38,-2.64l-0.96 -1.15c-0.95,0.07 -1.9,1.05 -2.32,1.68z"/>
   <path class="fil40" d="M8562.52 8378.26c0.1,0.99 0.78,1.72 1.49,1.99 0.91,0.16 1.54,0.2 2.27,-0.25 0.81,-0.5 0.57,-0.78 1.12,-1.4 -0.11,-0.27 -0.18,-0.46 -0.3,-0.71 -0.02,-0.03 -0.16,-0.27 -0.17,-0.28 -0.21,-0.27 -0.05,-0.14 -0.3,-0.25 -0.49,0.54 -0.02,1.15 -0.76,1.77 -0.59,0.47 -1.44,0.41 -1.94,-0.05 -1.11,-1.04 -0.33,-3.03 1.57,-2.49 -0.3,0.62 -2.18,1.76 -1.42,2.33 0.62,0.47 1.69,-1.37 2.55,-1.82 -0.16,-0.25 -0.25,-0.47 -0.43,-0.75 -0.18,-0.3 -0.31,-0.48 -0.48,-0.77 -2.11,-0.14 -3.13,0.59 -3.2,2.68z"/>
   <path class="fil46" d="M8583.9 8367.22l0.02 0.21c0.15,0.1 0.13,0.11 0.28,0.25 0.02,0.02 0.05,0.04 0.08,0.06 0.02,0.03 0.04,0.06 0.07,0.08l1.83 1.84c0.71,-0.47 1.94,-2.18 1.78,-3.36 -0.24,-0.57 -0.77,-0.4 -1.41,-0.65 -0.54,-0.21 -0.59,-0.62 -0.96,-0.97l-0.01 0.11c-0.34,0.99 -1.01,2.08 -1.68,2.43z"/>
   <path class="fil47" d="M8605.73 8336.93c1.51,0.88 1.51,0.93 3.36,0.29 0.24,-0.37 0.18,-0.2 0.1,-0.76 -0.01,-0.04 -0.09,-0.34 -0.1,-0.39 -0.22,-0.53 0.14,-0.1 -0.3,-0.47 0,0.8 -0.25,1.02 -0.99,1.14 -2.52,0.4 -1.99,-3.84 0.21,-2.82 0.13,0.36 0.19,-0.02 -0.16,0.43 -0.44,0.54 -1.13,0.89 -1.36,1.56l0.44 0.46c1.05,-0.21 0.85,-1.22 1.86,-1.46 -0.16,-0.81 -0.51,-1.67 -1.07,-2.04 -2.32,0.06 -3.26,2.19 -1.99,4.06z"/>
   <path class="fil48" d="M8501.18 8348.69c0.46,0.76 1.48,1.97 2.23,2.33l0.57 -0.58c-0.7,-0.83 -1.89,-1.53 -2.09,-2.75 0.09,-1.14 1.01,-1.93 2.22,-1.34 0.68,0.35 1.35,1.35 1.99,1.86l0.54 -0.52c-0.33,-0.57 -1.97,-2.48 -3.37,-2.43 -1.6,0.07 -2.73,1.63 -2.09,3.43z"/>
   <path class="fil39" d="M8574.88 8279.8c0.54,-0.02 1.44,0.02 1.93,-0.17 0.71,-0.27 0.5,-0.73 0.52,-0.79 0.94,-0.25 0.64,-0.53 1.88,-1.35l0.62 -0.52c-0.7,-0.07 -1.15,-0.1 -1.81,-0.36 -0.62,-0.25 -0.85,-0.54 -1.31,-0.73 -0.19,0.03 -0.18,-0.12 -0.57,0.66 -1.02,2.14 -0.55,1.31 -1.26,3.26z"/>
   <path class="fil49" d="M8497.16 8351.49c0.16,0.69 0.68,0.8 1.17,1.26 0.65,0.6 0.65,0.79 1.53,1.18l0.03 -0.11c-0.21,-0.8 2.31,-1.9 0.82,-3.44 -0.95,-0.98 -2.06,-0.22 -2.73,0.56 -0.53,0.62 -0.13,0.21 -0.82,0.55z"/>
   <path class="fil50" d="M8581.45 8364.59c0.11,0.43 0.18,0.51 0.48,0.78 0.08,0.06 0.23,0.17 0.34,0.26l1.63 1.59c0.67,-0.35 1.34,-1.44 1.68,-2.43 -0.45,0.17 -0.32,0.07 -0.75,-0.33l-2.01 -1.69c-0.71,1.02 -0.27,0.99 -1.37,1.82z"/>
   <path class="fil38" d="M8580.37 8365.02c-0.69,1.42 -0.64,2.14 0.63,2.96 1.22,0.78 2.04,0.14 2.92,-0.55l-0.02 -0.21 -1.63 -1.59c-0.11,-0.09 -0.26,-0.2 -0.34,-0.26 -0.3,-0.27 -0.37,-0.35 -0.48,-0.78l-1.08 0.43z"/>
   <path class="fil51" d="M8509.04 8344.31c-0.66,0.29 -0.74,0.9 -1.54,1.06 -1.3,0.27 -2.85,-1.18 -1.07,-2.78 0.46,-0.41 1.09,-0.95 1.32,-1.49 -0.56,-0.94 -0.52,-0.67 -1.93,0.74 -4.03,4.05 3.96,6.36 3.22,2.47z"/>
   <path class="fil47" d="M8496.53 8350.88c0.22,0.5 -0.03,0.46 0.63,0.61 0.69,-0.34 0.29,0.07 0.82,-0.55 0.67,-0.78 1.78,-1.54 2.73,-0.56 1.49,1.54 -1.03,2.64 -0.82,3.44l0.44 0.3 0.45 -0.34c0,0 2.8,-2.62 0.14,-4.39 -0.72,-0.47 -1.92,-0.48 -2.63,0.04 -0.54,0.39 -1.08,1.44 -1.76,1.45z"/>
   <path class="fil52" d="M8597.53 8345.99c0.87,0.24 1.02,0.31 2.16,0.31 0.55,-0.53 1.77,-0.94 1,-1.97 -0.39,0.38 -0.81,0.99 -1.54,1.07 -0.83,0.11 -1.48,-0.33 -1.66,-0.97 -0.29,-1.04 0.22,-1.41 0.71,-1.85 0.26,-0.24 0.44,-0.42 0.68,-0.68l0.65 -0.8c-0.52,-0.85 -0.55,-0.8 -2.44,1.29 -1.54,1.69 0.39,3.49 0.44,3.6z"/>
   <path class="fil52" d="M8558.22 8387.05c-0.98,0.17 -0.67,0.93 -1.7,1.07 -0.87,0.11 -1.48,-0.39 -1.66,-1.04 -0.41,-1.35 1.4,-2.5 2.04,-3.22l-0.66 -0.69c-0.76,0.99 -3.3,2.47 -1.99,4.69 1.05,1.77 4.32,1.51 3.97,-0.81z"/>
   <path class="fil53" d="M8474.55 8281.37c0.29,0.45 0.71,0.52 1.22,0.78 0.64,0.34 0.74,0.51 1.52,0.76 0.46,-0.6 1.37,-1.18 1.58,-1.98 -0.47,-0.6 -1.17,-1.14 -2.33,-0.98 -1.22,0.17 -1.41,0.87 -1.99,1.42z"/>
   <path class="fil54" d="M8507.53 8249.84c-0.28,-0.54 -0.29,-0.54 -0.99,-0.67 -0.17,0.76 -1.09,1.06 -1.54,1.75 -0.49,0.8 -0.4,2 0.2,2.71 1.2,1.44 4.23,1.16 3.81,-1.07 0,0 -2.19,2.28 -3.17,0.29 -0.75,-1.5 1.38,-2.9 1.69,-3.01z"/>
   <path class="fil55" d="M8579.42 8361.87c-0.18,-0.27 -0.51,-0.62 -0.76,-0.88 -0.29,-0.3 -0.58,-0.65 -1.03,-0.76 -0.58,0.69 -1,1.66 -0.65,2.9 0.3,1.07 1.07,1.6 2.05,2.01 -0.58,-1.68 -0.36,-1.91 0.39,-3.27z"/>
   <path class="fil56" d="M8498.22 8257.42c0.04,0.28 0.05,0.51 0.16,0.75 0.24,0.52 0.05,0.22 0.42,0.47 0.15,-1.01 1.9,-0.4 2.21,0.42 0.44,1.13 -0.49,2.07 -1.11,2.31 0.04,0.57 0.19,0.58 0.45,1.03 0.04,-0.03 0.08,-0.06 0.09,-0.09l0.64 -0.66c0.18,-0.21 0.45,-0.43 0.63,-0.74 0.37,-0.62 0.43,-1.5 0.12,-2.23 -0.87,-2.14 -3.02,-1.25 -3.61,-1.26z"/>
   <path class="fil41" d="M8491.19 8276.42c-0.17,-0.46 -0.12,-0.46 -0.4,-0.9 -0.19,-0.33 -0.34,-0.51 -0.55,-0.81 -0.29,-0.46 -0.81,-1.29 -1.19,-1.57 -1,0.48 -1.3,1.55 -0.5,2.5 0.23,0.28 0.67,0.63 1.16,0.83 0.84,0.32 0.67,-0.05 1.48,-0.05z"/>
   <path class="fil57" d="M8487.07 8270.85c-0.01,-0.27 0.05,-0.11 -0.19,-0.42l-1.34 -1.32c-0.72,0.42 -0.5,1.98 -0.17,2.67 0.4,0.81 1.15,1.23 1.95,1.61 -0.81,-1.29 -0.15,-1.5 -0.25,-2.54z"/>
   <path class="fil58" d="M8498.8 8258.64c-0.13,0.51 0.14,0.96 0.38,1.48 0.12,0.24 0.17,0.35 0.31,0.61l0.41 0.64c0.62,-0.24 1.55,-1.18 1.11,-2.31 -0.31,-0.82 -2.06,-1.43 -2.21,-0.42z"/>
   <path class="fil21" d="M8566.63 8377.36l0 -0.26c-0.86,0.45 -1.93,2.29 -2.55,1.82 -0.76,-0.57 1.12,-1.71 1.42,-2.33 -1.9,-0.54 -2.68,1.45 -1.57,2.49 0.5,0.46 1.35,0.52 1.94,0.05 0.74,-0.62 0.27,-1.23 0.76,-1.77z"/>
   <path class="fil10" d="M8608.79 8335.6c0.19,-0.59 0.18,-0.07 0,-0.69 -1.01,0.24 -0.81,1.25 -1.86,1.46l-0.44 -0.46c0.23,-0.67 0.92,-1.02 1.36,-1.56 0.35,-0.45 0.29,-0.07 0.16,-0.43 -2.2,-1.02 -2.73,3.22 -0.21,2.82 0.74,-0.12 0.99,-0.34 0.99,-1.14z"/>
   <path class="fil38" d="M8603.44 8342.75l0.57 -0.55c-0.59,-0.62 -2.05,-2.38 -2.81,-2.55 -0.55,0.97 -0.14,0.89 0.66,1.66 0.46,0.46 1.05,1.19 1.58,1.44z"/>
  </g>
 </g>
</svg>
